<?xml version="1.0" encoding="UTF-8"?>
<svg width="71px" height="71px" viewBox="0 0 71 71" version="1.1" xmlns="http://www.w3.org/2000/svg" xmlns:xlink="http://www.w3.org/1999/xlink">
    <title>btn_cidades</title>
    <defs>
        <circle id="path-1" cx="31.5" cy="31.5" r="31.5"></circle>
        <filter x="-11.1%" y="-7.9%" width="122.2%" height="122.2%" filterUnits="objectBoundingBox" id="filter-2">
            <feOffset dx="0" dy="2" in="SourceAlpha" result="shadowOffsetOuter1"></feOffset>
            <feGaussianBlur stdDeviation="2" in="shadowOffsetOuter1" result="shadowBlurOuter1"></feGaussianBlur>
            <feColorMatrix values="0 0 0 0 0   0 0 0 0 0   0 0 0 0 0  0 0 0 0.5 0" type="matrix" in="shadowBlurOuter1"></feColorMatrix>
        </filter>
    </defs>
    <g id="Page-1" stroke="none" stroke-width="1" fill="none" fill-rule="evenodd">
        <g id="GaliciaWeather_perfil" transform="translate(-170.000000, -225.000000)">
            <g id="btn_cidades" transform="translate(174.000000, 227.000000)">
                <g id="Oval-Copy">
                    <use fill="black" fill-opacity="1" filter="url(#filter-2)" xlink:href="#path-1"></use>
                    <use fill="#D8D8D8" fill-rule="evenodd" xlink:href="#path-1"></use>
                </g>
                <path d="M41.4375,42.5 L40.5,42.5 L40.5,21.125 C40.5,20.5036719 39.9963281,20 39.375,20 L23.625,20 C23.0036719,20 22.5,20.5036719 22.5,21.125 L22.5,42.5 L21.5625,42.5 C21.2518594,42.5 21,42.7518594 21,43.0625 L21,44 L42,44 L42,43.0625 C42,42.7518594 41.7481406,42.5 41.4375,42.5 Z M27,23.5625 C27,23.2518594 27.2518594,23 27.5625,23 L29.4375,23 C29.7481406,23 30,23.2518594 30,23.5625 L30,25.4375 C30,25.7481406 29.7481406,26 29.4375,26 L27.5625,26 C27.2518594,26 27,25.7481406 27,25.4375 L27,23.5625 Z M27,28.0625 C27,27.7518594 27.2518594,27.5 27.5625,27.5 L29.4375,27.5 C29.7481406,27.5 30,27.7518594 30,28.0625 L30,29.9375 C30,30.2481406 29.7481406,30.5 29.4375,30.5 L27.5625,30.5 C27.2518594,30.5 27,30.2481406 27,29.9375 L27,28.0625 Z M29.4375,35 L27.5625,35 C27.2518594,35 27,34.7481406 27,34.4375 L27,32.5625 C27,32.2518594 27.2518594,32 27.5625,32 L29.4375,32 C29.7481406,32 30,32.2518594 30,32.5625 L30,34.4375 C30,34.7481406 29.7481406,35 29.4375,35 Z M33,42.5 L30,42.5 L30,38.5625 C30,38.2518594 30.2518594,38 30.5625,38 L32.4375,38 C32.7481406,38 33,38.2518594 33,38.5625 L33,42.5 Z M36,34.4375 C36,34.7481406 35.7481406,35 35.4375,35 L33.5625,35 C33.2518594,35 33,34.7481406 33,34.4375 L33,32.5625 C33,32.2518594 33.2518594,32 33.5625,32 L35.4375,32 C35.7481406,32 36,32.2518594 36,32.5625 L36,34.4375 Z M36,29.9375 C36,30.2481406 35.7481406,30.5 35.4375,30.5 L33.5625,30.5 C33.2518594,30.5 33,30.2481406 33,29.9375 L33,28.0625 C33,27.7518594 33.2518594,27.5 33.5625,27.5 L35.4375,27.5 C35.7481406,27.5 36,27.7518594 36,28.0625 L36,29.9375 Z M36,25.4375 C36,25.7481406 35.7481406,26 35.4375,26 L33.5625,26 C33.2518594,26 33,25.7481406 33,25.4375 L33,23.5625 C33,23.2518594 33.2518594,23 33.5625,23 L35.4375,23 C35.7481406,23 36,23.2518594 36,23.5625 L36,25.4375 Z" id="Shape" fill="#333333" fill-rule="nonzero"></path>
            </g>
        </g>
    </g>
</svg>