<?xml version="1.0" encoding="UTF-8"?>
<svg width="27px" height="32px" viewBox="0 0 27 32" version="1.1" xmlns="http://www.w3.org/2000/svg" xmlns:xlink="http://www.w3.org/1999/xlink">
    <title>Path</title>
    <defs>
        <filter x="-15.4%" y="-12.1%" width="130.8%" height="124.2%" filterUnits="objectBoundingBox" id="filter-1">
            <feOffset dx="0" dy="2" in="SourceAlpha" result="shadowOffsetOuter1"></feOffset>
            <feGaussianBlur stdDeviation="2" in="shadowOffsetOuter1" result="shadowBlurOuter1"></feGaussianBlur>
            <feColorMatrix values="0 0 0 0 0   0 0 0 0 0   0 0 0 0 0  0 0 0 0.5 0" type="matrix" in="shadowBlurOuter1" result="shadowMatrixOuter1"></feColorMatrix>
            <feMerge>
                <feMergeNode in="shadowMatrixOuter1"></feMergeNode>
                <feMergeNode in="SourceGraphic"></feMergeNode>
            </feMerge>
        </filter>
    </defs>
    <g id="Page-1" stroke="none" stroke-width="1" fill="none" fill-rule="evenodd">
        <g id="GaliciaWeather_perfil" transform="translate(-334.000000, -332.000000)" fill="#333333" fill-rule="nonzero">
            <g id="Filtros" transform="translate(17.000000, 314.000000)">
                <g id="btn_natureza" filter="url(#filter-1)" transform="translate(291.000000, 0.000000)">
                    <path d="M49,34.7744958 C46.2734367,41.4577307 39.7415611,37.4145447 39.7415611,37.4145447 C37.7374628,41.4137299 34.4269895,43.9853331 30.6068319,44 C29.810141,44 29.785399,42.807089 30.6068319,42.807089 C33.7935955,42.7924221 36.5696426,40.7194948 38.385702,37.4243227 C36.3519134,38.2016704 32.5169107,38.7883479 30.3891027,33.4055816 C35.7828485,31.2104298 38.2619922,33.9531473 39.2120832,35.6300672 C39.7019739,34.4371562 40.0533097,33.1415767 40.2809356,31.7335506 C40.2809356,31.7335506 33.3680339,32.8042371 32.8830916,26.9374618 C38.7766249,24.5956407 40.4343357,30.687309 40.4343357,30.687309 C40.51351,29.8708495 40.5976326,28.1157058 40.5976326,28.076594 C40.5976326,28.076594 35.3374934,24.4734162 38.7122958,20 C44.8779906,22.1022612 41.7506077,27.9397026 41.7506077,27.9397026 C41.7753496,28.0179263 41.7753496,29.1032797 41.7506077,29.5726217 C41.7506077,29.5726217 43.9872802,25.22143 48.5002125,26.7614585 C48.2923801,33.312691 41.4784462,31.9633327 41.4784462,31.9633327 C41.260717,33.302913 40.9242264,34.5740477 40.488768,35.7522917 C40.488768,35.7522917 44.5959323,31.2642086 49,34.7744958 L49,34.7744958 Z" id="Path"></path>
                </g>
            </g>
        </g>
    </g>
</svg>