<?xml version="1.0" encoding="UTF-8"?>
<svg width="35px" height="31px" viewBox="0 0 35 31" version="1.1" xmlns="http://www.w3.org/2000/svg" xmlns:xlink="http://www.w3.org/1999/xlink">
    <title>Shape</title>
    <defs>
        <filter x="-15.4%" y="-12.1%" width="130.8%" height="124.2%" filterUnits="objectBoundingBox" id="filter-1">
            <feOffset dx="0" dy="2" in="SourceAlpha" result="shadowOffsetOuter1"></feOffset>
            <feGaussianBlur stdDeviation="2" in="shadowOffsetOuter1" result="shadowBlurOuter1"></feGaussianBlur>
            <feColorMatrix values="0 0 0 0 0   0 0 0 0 0   0 0 0 0 0  0 0 0 0.5 0" type="matrix" in="shadowBlurOuter1" result="shadowMatrixOuter1"></feColorMatrix>
            <feMerge>
                <feMergeNode in="shadowMatrixOuter1"></feMergeNode>
                <feMergeNode in="SourceGraphic"></feMergeNode>
            </feMerge>
        </filter>
    </defs>
    <g id="Page-1" stroke="none" stroke-width="1" fill="none" fill-rule="evenodd">
        <g id="GaliciaWeather_perfil" transform="translate(-46.000000, -336.000000)" fill="#333333" fill-rule="nonzero">
            <g id="Filtros" transform="translate(17.000000, 314.000000)">
                <g id="btn_todos" filter="url(#filter-1)" transform="translate(8.000000, 0.000000)">
                    <g id="th-solid">
                        <path d="M33,25.3125 L33,29.6875 C33,30.4123828 32.4243737,31 31.7142828,31 L26.2857172,31 C25.5756263,31 25,30.4123828 25,29.6875 L25,25.3125 C25,24.5876172 25.5756263,24 26.2857172,24 L31.7142828,24 C32.4243737,24 33,24.5876172 33,25.3125 Z M43,37.6875 L43,33.3125 C43,32.5876172 42.4243776,32 41.7142915,32 L36.2857085,32 C35.5756224,32 35,32.5876172 35,33.3125 L35,37.6875 C35,38.4123828 35.5756224,39 36.2857085,39 L41.7142379,39 C42.4243776,39 43,38.4123828 43,37.6875 L43,37.6875 Z M44,25.3125 L44,29.6875 C44,30.4123828 44.5756263,31 45.2857172,31 L50.7142828,31 C51.4243737,31 52,30.4123828 52,29.6875 L52,25.3125 C52,24.5876172 51.4243737,24 50.7142828,24 L45.2857172,24 C44.5756263,24 44,24.5876172 44,25.3125 L44,25.3125 Z M43,29.6875 L43,25.3125 C43,24.5876172 42.4243776,24 41.7142915,24 L36.2857085,24 C35.5756224,24 35,24.5876172 35,25.3125 L35,29.6875 C35,30.4123828 35.5756224,31 36.2857085,31 L41.7142379,31 C42.4243776,31 43,30.4123828 43,29.6875 L43,29.6875 Z M31.7142828,32 L26.2857172,32 C25.5756263,32 25,32.5876172 25,33.3125 L25,37.6875 C25,38.4123828 25.5756263,39 26.2857172,39 L31.7142828,39 C32.4243737,39 33,38.4123828 33,37.6875 L33,33.3125 C33,32.5876172 32.4243737,32 31.7142828,32 L31.7142828,32 Z M25,41.3125 L25,45.6875 C25,46.4123828 25.5756263,47 26.2857172,47 L31.7142828,47 C32.4243737,47 33,46.4123828 33,45.6875 L33,41.3125 C33,40.5876172 32.4243737,40 31.7142828,40 L26.2857172,40 C25.5756263,40 25,40.5876172 25,41.3125 Z M45.2857172,39 L50.7142828,39 C51.4243737,39 52,38.4123828 52,37.6875 L52,33.3125 C52,32.5876172 51.4243737,32 50.7142828,32 L45.2857172,32 C44.5756263,32 44,32.5876172 44,33.3125 L44,37.6875 C44,38.4123828 44.5756263,39 45.2857172,39 Z M45.2857172,47 L50.7142828,47 C51.4243737,47 52,46.4123828 52,45.6875 L52,41.3125 C52,40.5876172 51.4243737,40 50.7142828,40 L45.2857172,40 C44.5756263,40 44,40.5876172 44,41.3125 L44,45.6875 C44,46.4123828 44.5756263,47 45.2857172,47 Z M34,41.3125 L34,45.6875 C34,46.4123828 34.5756263,47 35.2857172,47 L40.7142828,47 C41.4243737,47 42,46.4123828 42,45.6875 L42,41.3125 C42,40.5876172 41.4243737,40 40.7142828,40 L35.2857172,40 C34.5756263,40 34,40.5876172 34,41.3125 Z" id="Shape"></path>
                    </g>
                </g>
            </g>
        </g>
    </g>
</svg>