<?xml version="1.0" encoding="UTF-8"?>
<svg width="29px" height="32px" viewBox="0 0 29 32" version="1.1" xmlns="http://www.w3.org/2000/svg" xmlns:xlink="http://www.w3.org/1999/xlink">
    <title>Shape</title>
    <defs>
        <filter x="-15.4%" y="-12.1%" width="130.8%" height="124.2%" filterUnits="objectBoundingBox" id="filter-1">
            <feOffset dx="0" dy="2" in="SourceAlpha" result="shadowOffsetOuter1"></feOffset>
            <feGaussianBlur stdDeviation="2" in="shadowOffsetOuter1" result="shadowBlurOuter1"></feGaussianBlur>
            <feColorMatrix values="0 0 0 0 0   0 0 0 0 0   0 0 0 0 0  0 0 0 0.5 0" type="matrix" in="shadowBlurOuter1" result="shadowMatrixOuter1"></feColorMatrix>
            <feMerge>
                <feMergeNode in="shadowMatrixOuter1"></feMergeNode>
                <feMergeNode in="SourceGraphic"></feMergeNode>
            </feMerge>
        </filter>
    </defs>
    <g id="Page-1" stroke="none" stroke-width="1" fill="none" fill-rule="evenodd">
        <g id="GaliciaWeather_perfil" transform="translate(-241.000000, -332.000000)" fill="#333333" fill-rule="nonzero">
            <g id="Filtros" transform="translate(17.000000, 314.000000)">
                <g id="btn_cidades" filter="url(#filter-1)" transform="translate(199.000000, 0.000000)">
                    <path d="M49.4375,42.5 L48.5,42.5 L48.5,21.125 C48.5,20.5036719 47.9963281,20 47.375,20 L31.625,20 C31.0036719,20 30.5,20.5036719 30.5,21.125 L30.5,42.5 L29.5625,42.5 C29.2518594,42.5 29,42.7518594 29,43.0625 L29,44 L50,44 L50,43.0625 C50,42.7518594 49.7481406,42.5 49.4375,42.5 Z M35,23.5625 C35,23.2518594 35.2518594,23 35.5625,23 L37.4375,23 C37.7481406,23 38,23.2518594 38,23.5625 L38,25.4375 C38,25.7481406 37.7481406,26 37.4375,26 L35.5625,26 C35.2518594,26 35,25.7481406 35,25.4375 L35,23.5625 Z M35,28.0625 C35,27.7518594 35.2518594,27.5 35.5625,27.5 L37.4375,27.5 C37.7481406,27.5 38,27.7518594 38,28.0625 L38,29.9375 C38,30.2481406 37.7481406,30.5 37.4375,30.5 L35.5625,30.5 C35.2518594,30.5 35,30.2481406 35,29.9375 L35,28.0625 Z M37.4375,35 L35.5625,35 C35.2518594,35 35,34.7481406 35,34.4375 L35,32.5625 C35,32.2518594 35.2518594,32 35.5625,32 L37.4375,32 C37.7481406,32 38,32.2518594 38,32.5625 L38,34.4375 C38,34.7481406 37.7481406,35 37.4375,35 Z M41,42.5 L38,42.5 L38,38.5625 C38,38.2518594 38.2518594,38 38.5625,38 L40.4375,38 C40.7481406,38 41,38.2518594 41,38.5625 L41,42.5 Z M44,34.4375 C44,34.7481406 43.7481406,35 43.4375,35 L41.5625,35 C41.2518594,35 41,34.7481406 41,34.4375 L41,32.5625 C41,32.2518594 41.2518594,32 41.5625,32 L43.4375,32 C43.7481406,32 44,32.2518594 44,32.5625 L44,34.4375 Z M44,29.9375 C44,30.2481406 43.7481406,30.5 43.4375,30.5 L41.5625,30.5 C41.2518594,30.5 41,30.2481406 41,29.9375 L41,28.0625 C41,27.7518594 41.2518594,27.5 41.5625,27.5 L43.4375,27.5 C43.7481406,27.5 44,27.7518594 44,28.0625 L44,29.9375 Z M44,25.4375 C44,25.7481406 43.7481406,26 43.4375,26 L41.5625,26 C41.2518594,26 41,25.7481406 41,25.4375 L41,23.5625 C41,23.2518594 41.2518594,23 41.5625,23 L43.4375,23 C43.7481406,23 44,23.2518594 44,23.5625 L44,25.4375 Z" id="Shape"></path>
                </g>
            </g>
        </g>
    </g>
</svg>