<?xml version="1.0" encoding="UTF-8"?>
<svg width="71px" height="71px" viewBox="0 0 71 71" version="1.1" xmlns="http://www.w3.org/2000/svg" xmlns:xlink="http://www.w3.org/1999/xlink">
    <title>btn_monumentos</title>
    <defs>
        <circle id="path-1" cx="31.5" cy="31.5" r="31.5"></circle>
        <filter x="-11.1%" y="-7.9%" width="122.2%" height="122.2%" filterUnits="objectBoundingBox" id="filter-2">
            <feOffset dx="0" dy="2" in="SourceAlpha" result="shadowOffsetOuter1"></feOffset>
            <feGaussianBlur stdDeviation="2" in="shadowOffsetOuter1" result="shadowBlurOuter1"></feGaussianBlur>
            <feColorMatrix values="0 0 0 0 0   0 0 0 0 0   0 0 0 0 0  0 0 0 0.5 0" type="matrix" in="shadowBlurOuter1"></feColorMatrix>
        </filter>
    </defs>
    <g id="Page-1" stroke="none" stroke-width="1" fill="none" fill-rule="evenodd">
        <g id="GaliciaWeather_perfil" transform="translate(-41.000000, -225.000000)">
            <g id="btn_monumentos" transform="translate(45.000000, 227.000000)">
                <g id="Oval">
                    <use fill="black" fill-opacity="1" filter="url(#filter-2)" xlink:href="#path-1"></use>
                    <use fill="#D8D8D8" fill-rule="evenodd" xlink:href="#path-1"></use>
                </g>
                <g id="th-solid" transform="translate(19.000000, 21.000000)" fill="#333333" fill-rule="nonzero">
                    <path d="M7.29165039,1.125 L7.29165039,4.875 C7.29165039,5.49632812 6.76699219,6 6.11977539,6 L1.171875,6 C0.524658203,6 0,5.49632812 0,4.875 L0,1.125 C0,0.503671875 0.524658203,0 1.171875,0 L6.11977539,0 C6.76699219,0 7.29165039,0.503671875 7.29165039,1.125 Z M16.1458496,12.375 L16.1458496,8.625 C16.1458496,8.00367188 15.6211914,7.5 14.9739746,7.5 L10.0260254,7.5 C9.37880859,7.5 8.85415039,8.00367188 8.85415039,8.625 L8.85415039,12.375 C8.85415039,12.9963281 9.37880859,13.5 10.0260254,13.5 L14.9739258,13.5 C15.6211914,13.5 16.1458496,12.9963281 16.1458496,12.375 L16.1458496,12.375 Z M17.7083496,1.125 L17.7083496,4.875 C17.7083496,5.49632812 18.2330078,6 18.8802246,6 L23.828125,6 C24.4753418,6 25,5.49632812 25,4.875 L25,1.125 C25,0.503671875 24.4753418,0 23.828125,0 L18.8802246,0 C18.2330078,0 17.7083496,0.503671875 17.7083496,1.125 L17.7083496,1.125 Z M16.1458496,4.875 L16.1458496,1.125 C16.1458496,0.503671875 15.6211914,0 14.9739746,0 L10.0260254,0 C9.37880859,0 8.85415039,0.503671875 8.85415039,1.125 L8.85415039,4.875 C8.85415039,5.49632812 9.37880859,6 10.0260254,6 L14.9739258,6 C15.6211914,6 16.1458496,5.49632812 16.1458496,4.875 L16.1458496,4.875 Z M6.11977539,7.5 L1.171875,7.5 C0.524658203,7.5 0,8.00367188 0,8.625 L0,12.375 C0,12.9963281 0.524658203,13.5 1.171875,13.5 L6.11977539,13.5 C6.76699219,13.5 7.29165039,12.9963281 7.29165039,12.375 L7.29165039,8.625 C7.29165039,8.00367188 6.76699219,7.5 6.11977539,7.5 L6.11977539,7.5 Z M0,16.125 L0,19.875 C0,20.4963281 0.524658203,21 1.171875,21 L6.11977539,21 C6.76699219,21 7.29165039,20.4963281 7.29165039,19.875 L7.29165039,16.125 C7.29165039,15.5036719 6.76699219,15 6.11977539,15 L1.171875,15 C0.524658203,15 0,15.5036719 0,16.125 Z M18.8802246,13.5 L23.828125,13.5 C24.4753418,13.5 25,12.9963281 25,12.375 L25,8.625 C25,8.00367188 24.4753418,7.5 23.828125,7.5 L18.8802246,7.5 C18.2330078,7.5 17.7083496,8.00367188 17.7083496,8.625 L17.7083496,12.375 C17.7083496,12.9963281 18.2330078,13.5 18.8802246,13.5 Z M18.8802246,21 L23.828125,21 C24.4753418,21 25,20.4963281 25,19.875 L25,16.125 C25,15.5036719 24.4753418,15 23.828125,15 L18.8802246,15 C18.2330078,15 17.7083496,15.5036719 17.7083496,16.125 L17.7083496,19.875 C17.7083496,20.4963281 18.2330078,21 18.8802246,21 Z M8.85415039,16.125 L8.85415039,19.875 C8.85415039,20.4963281 9.37880859,21 10.0260254,21 L14.9739258,21 C15.6211426,21 16.1458008,20.4963281 16.1458008,19.875 L16.1458008,16.125 C16.1458008,15.5036719 15.6211426,15 14.9739258,15 L10.0260254,15 C9.37880859,15 8.85415039,15.5036719 8.85415039,16.125 Z" id="Shape"></path>
                </g>
            </g>
        </g>
    </g>
</svg>