<?xml version="1.0" encoding="utf-8"?>
<!-- Generator: Adobe Illustrator 23.0.1, SVG Export Plug-In . SVG Version: 6.00 Build 0)  -->
<svg version="1.1" id="Layer_1" xmlns="http://www.w3.org/2000/svg" xmlns:xlink="http://www.w3.org/1999/xlink" x="0px" y="0px"
	 viewBox="0 0 393 299.7" style="enable-background:new 0 0 393 299.7;" xml:space="preserve">
<style type="text/css">
	.st0{fill:url(#SVGID_1_);}
	.st1{fill-rule:evenodd;clip-rule:evenodd;fill:#6685CC;}
	.st2{fill-rule:evenodd;clip-rule:evenodd;fill:#FFFFFF;}
	.st3{fill-rule:evenodd;clip-rule:evenodd;fill:#FEF9EE;}
</style>
<radialGradient id="SVGID_1_" cx="196.5" cy="149.8563" r="174.7415" gradientUnits="userSpaceOnUse">
	<stop  offset="0" style="stop-color:#FFFFFF"/>
	<stop  offset="3.647244e-02" style="stop-color:#E7E7E7"/>
	<stop  offset="0.1109" style="stop-color:#BDBDBD"/>
	<stop  offset="0.1917" style="stop-color:#989898"/>
	<stop  offset="0.278" style="stop-color:#797979"/>
	<stop  offset="0.3713" style="stop-color:#5F5F5F"/>
	<stop  offset="0.4744" style="stop-color:#4B4B4B"/>
	<stop  offset="0.5926" style="stop-color:#3E3E3E"/>
	<stop  offset="0.7392" style="stop-color:#353535"/>
	<stop  offset="1" style="stop-color:#333333"/>
</radialGradient>
<rect class="st0" width="393" height="299.7"/>
<title>fondo_perfil</title>
<g id="Page-1">
	<g id="GaliciaWeather_perfil" transform="translate(-14.000000, -39.000000)">
		<g id="fondo_perfil" transform="translate(14.000000, 39.000000)">
			<g id="Group-110" transform="translate(0.000000, 0.491457)">
				<path id="Fill-1" class="st1" d="M89.7,58.6c-1.5,0-2.8,1.2-2.8,2.8s1.2,2.8,2.8,2.8s2.8-1.2,2.8-2.8S91.2,58.6,89.7,58.6"/>
				<path id="Fill-3" class="st2" d="M90.2,59.8c-0.7,0-1.1,0.8-1.1,1.7s0.4,1.7,1.1,1.7c0.7,0,1.1-0.8,1.1-1.7S90.9,59.8,90.2,59.8
					"/>
				<path id="Fill-5" class="st1" d="M129.4,76.4c-1.5,0-2.8,1.2-2.8,2.8c0,1.5,1.2,2.8,2.8,2.8s2.8-1.2,2.8-2.8
					C132.2,77.6,131,76.4,129.4,76.4"/>
				<path id="Fill-7" class="st2" d="M130,77.5c-0.7,0-1.1,0.8-1.1,1.7c0,0.9,0.4,1.7,1.1,1.7s1.1-0.8,1.1-1.7
					C131.1,78.2,130.7,77.5,130,77.5"/>
				<path id="Fill-9" class="st1" d="M79.7,104c-1.5,0-2.8,1.2-2.8,2.8s1.2,2.8,2.8,2.8s2.8-1.2,2.8-2.8S81.3,104,79.7,104"/>
				<path id="Fill-11" class="st2" d="M79.2,105.1c-0.7,0-1.1,0.8-1.1,1.7s0.4,1.7,1.1,1.7c0.7,0,1.1-0.8,1.1-1.7
					S79.8,105.1,79.2,105.1"/>
				<path id="Fill-13" class="st1" d="M141,0c-1.2,0-2.2,1-2.2,2.2s1,2.2,2.2,2.2c1.2,0,2.2-1,2.2-2.2S142.3,0,141,0"/>
				<path id="Fill-15" class="st2" d="M141.6,1.1c-0.3,0-0.6,0.2-0.6,0.6s0.2,0.6,0.6,0.6s0.6-0.2,0.6-0.6S141.9,1.1,141.6,1.1"/>
				<path id="Fill-17" class="st1" d="M93.5,96.3c-1.2,0-2.2,1-2.2,2.2s1,2.2,2.2,2.2c1.2,0,2.2-1,2.2-2.2S94.7,96.3,93.5,96.3"/>
				<path id="Fill-19" class="st2" d="M94.1,98.5c-0.3,0-0.6,0.2-0.6,0.6c0,0.3,0.2,0.6,0.6,0.6c0.3,0,0.6-0.2,0.6-0.6
					C94.6,98.7,94.4,98.5,94.1,98.5"/>
				<path id="Fill-21" class="st1" d="M59.3,34.3c-1.2,0-2.2,1-2.2,2.2s1,2.2,2.2,2.2c1.2,0,2.2-1,2.2-2.2S60.5,34.3,59.3,34.3"/>
				<path id="Fill-23" class="st2" d="M59.8,36.5c-0.3,0-0.6,0.2-0.6,0.6s0.2,0.6,0.6,0.6c0.3,0,0.6-0.2,0.6-0.6
					S60.2,36.5,59.8,36.5"/>
				<path id="Fill-25" class="st1" d="M323.9,52c-1.5,0-2.8,1.2-2.8,2.8c0,1.5,1.2,2.8,2.8,2.8c1.5,0,2.8-1.2,2.8-2.8
					C326.7,53.2,325.5,52,323.9,52"/>
				<path id="Fill-27" class="st2" d="M323.4,53.1c-0.7,0-1.1,0.8-1.1,1.7c0,0.9,0.4,1.7,1.1,1.7c0.7,0,1.1-0.8,1.1-1.7
					C324.5,53.9,324,53.1,323.4,53.1"/>
				<path id="Fill-29" class="st1" d="M272,75.2c-1.5,0-2.8,1.2-2.8,2.8c0,1.5,1.2,2.8,2.8,2.8c1.5,0,2.8-1.2,2.8-2.8
					C274.7,76.5,273.5,75.2,272,75.2"/>
				<path id="Fill-31" class="st2" d="M272.5,76.4c-1.2,0-2.2,1-2.2,2.2s1,2.2,2.2,2.2s2.2-1,2.2-2.2S273.7,76.4,272.5,76.4"/>
				<path id="Fill-37" class="st1" d="M242.1,15.5c-1.5,0-2.8,1.2-2.8,2.8c0,1.5,1.2,2.8,2.8,2.8s2.8-1.2,2.8-2.8
					C244.9,16.7,243.7,15.5,242.1,15.5"/>
				<path id="Fill-39" class="st2" d="M241.6,16.6c-0.7,0-1.1,0.8-1.1,1.7c0,0.9,0.4,1.7,1.1,1.7c0.7,0,1.1-0.8,1.1-1.7
					C242.7,17.4,242.3,16.6,241.6,16.6"/>
				<path id="Fill-41" class="st1" d="M300.7,119.5c-1.5,0-2.8,1.2-2.8,2.8c0,1.5,1.2,2.8,2.8,2.8c1.5,0,2.8-1.2,2.8-2.8
					C303.5,120.7,302.3,119.5,300.7,119.5"/>
				<path id="Fill-43" class="st2" d="M300.2,120.6c-0.7,0-1.1,0.8-1.1,1.7s0.4,1.7,1.1,1.7c0.7,0,1.1-0.8,1.1-1.7
					S300.8,120.6,300.2,120.6"/>
				<path id="Fill-49" class="st1" d="M16.7,27.7c-1.5,0-2.8,1.2-2.8,2.8c0,1.5,1.2,2.8,2.8,2.8c1.5,0,2.8-1.2,2.8-2.8
					C19.5,28.9,18.3,27.7,16.7,27.7"/>
				<path id="Fill-51" class="st2" d="M17.3,28.8c-0.7,0-1.1,0.8-1.1,1.7c0,0.9,0.4,1.7,1.1,1.7c0.7,0,1.1-0.8,1.1-1.7
					C18.4,29.5,17.9,28.8,17.3,28.8"/>
				<path id="Fill-53" class="st1" d="M355.4,0c-1.2,0-2.2,1-2.2,2.2s1,2.2,2.2,2.2s2.2-1,2.2-2.2S356.6,0,355.4,0"/>
				<path id="Fill-55" class="st2" d="M353.8,3.3c-0.3,0-0.6,0.2-0.6,0.6s0.2,0.6,0.6,0.6c0.3,0,0.6-0.2,0.6-0.6
					S354.1,3.3,353.8,3.3"/>
				<path id="Fill-61" class="st1" d="M390.2,105.1c-1.5,0-2.8,1.2-2.8,2.8c0,1.5,1.2,2.8,2.8,2.8c1.5,0,2.8-1.2,2.8-2.8
					C393,106.3,391.8,105.1,390.2,105.1"/>
				<path id="Fill-63" class="st2" d="M389.7,106.2c-0.7,0-1.1,0.8-1.1,1.7c0,0.9,0.4,1.7,1.1,1.7s1.1-0.8,1.1-1.7
					C390.8,107,390.3,106.2,389.7,106.2"/>
				<path id="Fill-65" class="st1" d="M99,123.9c-1.9,0-3.3,1.8-3.3,3.9c0,2.1,1.4,3.9,3.3,3.9c1.9,0,3.3-1.8,3.3-3.9
					C102.4,125.7,100.9,123.9,99,123.9"/>
				<path id="Fill-67" class="st2" d="M99,125c-1.2,0-2.2,1-2.2,2.2s1,2.2,2.2,2.2s2.2-1,2.2-2.2S100.3,125,99,125"/>
				<path id="Fill-69" class="st1" d="M315.1,89.6c-1.5,0-2.8,1.2-2.8,2.8s1.2,2.8,2.8,2.8s2.8-1.2,2.8-2.8S316.6,89.6,315.1,89.6"
					/>
				<path id="Fill-71" class="st2" d="M315.6,90.7c-0.7,0-1.1,0.8-1.1,1.7s0.4,1.7,1.1,1.7c0.7,0,1.1-0.8,1.1-1.7
					S316.3,90.7,315.6,90.7"/>
				<path id="Fill-73" class="st1" d="M258.2,87.4c-1.2,0-2.2,1-2.2,2.2s1,2.2,2.2,2.2c1.2,0,2.2-1,2.2-2.2S259.4,87.4,258.2,87.4"
					/>
				<path id="Fill-75" class="st2" d="M257.6,89.6c-0.3,0-0.6,0.2-0.6,0.6s0.2,0.6,0.6,0.6s0.6-0.2,0.6-0.6S257.9,89.6,257.6,89.6"
					/>
				<path id="Fill-77" class="st1" d="M279.2,140.5c-1.2,0-2.2,1-2.2,2.2c0,1.2,1,2.2,2.2,2.2c1.2,0,2.2-1,2.2-2.2
					C281.4,141.5,280.4,140.5,279.2,140.5"/>
				<path id="Fill-79" class="st2" d="M279.7,142.7c-0.3,0-0.6,0.2-0.6,0.6c0,0.3,0.2,0.6,0.6,0.6s0.6-0.2,0.6-0.6
					C280.3,143,280,142.7,279.7,142.7"/>
				<path id="Fill-85" class="st1" d="M261.5,126.1c-1.2,0-2.2,1-2.2,2.2c0,1.2,1,2.2,2.2,2.2s2.2-1,2.2-2.2
					C263.7,127.1,262.7,126.1,261.5,126.1"/>
				<path id="Fill-87" class="st2" d="M262,128.4c-0.3,0-0.6,0.2-0.6,0.6s0.2,0.6,0.6,0.6c0.3,0,0.6-0.2,0.6-0.6
					S262.4,128.4,262,128.4"/>
				<path id="Fill-89" class="st1" d="M2.9,99.6c-1.2,0-2.2,1-2.2,2.2s1,2.2,2.2,2.2s2.2-1,2.2-2.2S4.1,99.6,2.9,99.6"/>
				<path id="Fill-91" class="st2" d="M2.4,100.7c-0.3,0-0.6,0.2-0.6,0.6c0,0.3,0.2,0.6,0.6,0.6s0.6-0.2,0.6-0.6
					C2.9,100.9,2.7,100.7,2.4,100.7"/>
				<path id="Fill-104-Copy" class="st3" d="M390,131.9H252.2l5.3-1.7c5.5-1.7,7.8-5.2,16.9-0.5h0.1l0,0c7.1-4,14.2-4.2,20.8-0.9
					l1.9,0.4l6.1-0.1c4.6-12.7,16-17.2,29.2-17.2c13,0,24.2,4,29,16.3l2.6-0.1c7.8-1.7,15.8-0.9,23.1,2.4L390,131.9z"/>
				<path id="Fill-106" class="st3" d="M24.8,65.9h87l-3.3-1c-3.5-1.1-4.8-3.1-10.7-0.3h-0.1c-4.4-2.4-9-2.6-13.1-0.5l-1.2,0.3
					l-3.9-0.1c-2.9-7.7-10.1-10.3-18.5-10.3c-8.2,0-15.3,2.5-18.3,9.8h-1.7c-4.9-1.1-10-0.5-14.6,1.5L24.8,65.9z"/>
				<path id="Fill-108" class="st3" d="M1.5,148.7h102.8l-4-1.2c-4.1-1.2-5.7-3.8-12.6-0.3h-0.1c-5.3-2.9-10.6-3.1-15.6-0.7
					l-1.4,0.3l-4.5-0.1c-3.4-9.2-11.9-12.4-21.9-12.4c-9.7,0-18,3-21.5,11.7h-2c-5.7-1.2-11.8-0.7-17.2,1.8L1.5,148.7z"/>
				<path id="Fill-108-Copy" class="st3" d="M284.5,16.7h102.8l-4-1.2c-4.1-1.2-5.7-3.8-12.6-0.3h-0.1c-5.3-2.9-10.6-3.1-15.6-0.7
					l-1.4,0.3l-4.5-0.1c-3.4-9.2-11.9-12.4-21.9-12.4c-9.7,0-18,3-21.5,11.7h-2c-5.7-1.2-11.8-0.7-17.2,1.8L284.5,16.7z"/>
			</g>
		</g>
	</g>
</g>
<g id="Page-1_1_">
	<g id="GaliciaWeather_perfil_1_" transform="translate(-14.000000, -39.000000)">
		<g id="fondo_perfil_1_" transform="translate(14.000000, 39.000000)">
			<g id="Group-110_1_" transform="translate(0.000000, 0.491457)">
				<path id="Fill-1_1_" class="st1" d="M89.7,209c-1.5,0-2.8,1.2-2.8,2.8s1.2,2.8,2.8,2.8s2.8-1.2,2.8-2.8S91.2,209,89.7,209"/>
				<path id="Fill-3_1_" class="st2" d="M90.2,210.1c-0.7,0-1.1,0.8-1.1,1.7s0.4,1.7,1.1,1.7c0.7,0,1.1-0.8,1.1-1.7
					S90.9,210.1,90.2,210.1"/>
				<path id="Fill-5_1_" class="st1" d="M129.4,226.7c-1.5,0-2.8,1.2-2.8,2.8c0,1.5,1.2,2.8,2.8,2.8s2.8-1.2,2.8-2.8
					C132.2,227.9,131,226.7,129.4,226.7"/>
				<path id="Fill-7_1_" class="st2" d="M130,227.8c-0.7,0-1.1,0.8-1.1,1.7c0,0.9,0.4,1.7,1.1,1.7s1.1-0.8,1.1-1.7
					C131.1,228.6,130.7,227.8,130,227.8"/>
				<path id="Fill-9_1_" class="st1" d="M79.7,254.4c-1.5,0-2.8,1.2-2.8,2.8c0,1.5,1.2,2.8,2.8,2.8s2.8-1.2,2.8-2.8
					C82.5,255.6,81.3,254.4,79.7,254.4"/>
				<path id="Fill-11_1_" class="st2" d="M79.2,255.5c-0.7,0-1.1,0.8-1.1,1.7s0.4,1.7,1.1,1.7c0.7,0,1.1-0.8,1.1-1.7
					S79.8,255.5,79.2,255.5"/>
				<path id="Fill-13_1_" class="st1" d="M141,150.4c-1.2,0-2.2,1-2.2,2.2c0,1.2,1,2.2,2.2,2.2c1.2,0,2.2-1,2.2-2.2
					C143.2,151.4,142.3,150.4,141,150.4"/>
				<path id="Fill-15_1_" class="st2" d="M141.6,151.5c-0.3,0-0.6,0.2-0.6,0.6s0.2,0.6,0.6,0.6s0.6-0.2,0.6-0.6
					S141.9,151.5,141.6,151.5"/>
				<path id="Fill-17_1_" class="st1" d="M93.5,246.6c-1.2,0-2.2,1-2.2,2.2c0,1.2,1,2.2,2.2,2.2c1.2,0,2.2-1,2.2-2.2
					C95.7,247.6,94.7,246.6,93.5,246.6"/>
				<path id="Fill-19_1_" class="st2" d="M94.1,248.8c-0.3,0-0.6,0.2-0.6,0.6c0,0.3,0.2,0.6,0.6,0.6c0.3,0,0.6-0.2,0.6-0.6
					C94.6,249.1,94.4,248.8,94.1,248.8"/>
				<path id="Fill-21_1_" class="st1" d="M59.3,184.7c-1.2,0-2.2,1-2.2,2.2c0,1.2,1,2.2,2.2,2.2c1.2,0,2.2-1,2.2-2.2
					C61.5,185.7,60.5,184.7,59.3,184.7"/>
				<path id="Fill-23_1_" class="st2" d="M59.8,186.9c-0.3,0-0.6,0.2-0.6,0.6s0.2,0.6,0.6,0.6c0.3,0,0.6-0.2,0.6-0.6
					S60.2,186.9,59.8,186.9"/>
				<path id="Fill-25_1_" class="st1" d="M323.9,202.4c-1.5,0-2.8,1.2-2.8,2.8s1.2,2.8,2.8,2.8c1.5,0,2.8-1.2,2.8-2.8
					S325.5,202.4,323.9,202.4"/>
				<path id="Fill-27_1_" class="st2" d="M323.4,203.5c-0.7,0-1.1,0.8-1.1,1.7s0.4,1.7,1.1,1.7c0.7,0,1.1-0.8,1.1-1.7
					S324,203.5,323.4,203.5"/>
				<path id="Fill-29_1_" class="st1" d="M272,225.6c-1.5,0-2.8,1.2-2.8,2.8s1.2,2.8,2.8,2.8c1.5,0,2.8-1.2,2.8-2.8
					S273.5,225.6,272,225.6"/>
				<path id="Fill-31_1_" class="st2" d="M272.5,226.7c-1.2,0-2.2,1-2.2,2.2c0,1.2,1,2.2,2.2,2.2s2.2-1,2.2-2.2
					C274.7,227.7,273.7,226.7,272.5,226.7"/>
				<path id="Fill-37_1_" class="st1" d="M242.1,165.9c-1.5,0-2.8,1.2-2.8,2.8s1.2,2.8,2.8,2.8s2.8-1.2,2.8-2.8
					S243.7,165.9,242.1,165.9"/>
				<path id="Fill-39_1_" class="st2" d="M241.6,167c-0.7,0-1.1,0.8-1.1,1.7s0.4,1.7,1.1,1.7c0.7,0,1.1-0.8,1.1-1.7
					S242.3,167,241.6,167"/>
				<path id="Fill-41_1_" class="st1" d="M300.7,269.9c-1.5,0-2.8,1.2-2.8,2.8c0,1.5,1.2,2.8,2.8,2.8c1.5,0,2.8-1.2,2.8-2.8
					C303.5,271.1,302.3,269.9,300.7,269.9"/>
				<path id="Fill-43_1_" class="st2" d="M300.2,271c-0.7,0-1.1,0.8-1.1,1.7s0.4,1.7,1.1,1.7c0.7,0,1.1-0.8,1.1-1.7
					S300.8,271,300.2,271"/>
				<path id="Fill-49_1_" class="st1" d="M16.7,178c-1.5,0-2.8,1.2-2.8,2.8s1.2,2.8,2.8,2.8c1.5,0,2.8-1.2,2.8-2.8
					S18.3,178,16.7,178"/>
				<path id="Fill-51_1_" class="st2" d="M17.3,179.1c-0.7,0-1.1,0.8-1.1,1.7s0.4,1.7,1.1,1.7c0.7,0,1.1-0.8,1.1-1.7
					S17.9,179.1,17.3,179.1"/>
				<path id="Fill-53_1_" class="st1" d="M355.4,150.4c-1.2,0-2.2,1-2.2,2.2c0,1.2,1,2.2,2.2,2.2s2.2-1,2.2-2.2
					C357.6,151.4,356.6,150.4,355.4,150.4"/>
				<path id="Fill-55_1_" class="st2" d="M353.8,153.7c-0.3,0-0.6,0.2-0.6,0.6c0,0.3,0.2,0.6,0.6,0.6c0.3,0,0.6-0.2,0.6-0.6
					C354.3,153.9,354.1,153.7,353.8,153.7"/>
				<path id="Fill-61_1_" class="st1" d="M390.2,255.5c-1.5,0-2.8,1.2-2.8,2.8c0,1.5,1.2,2.8,2.8,2.8c1.5,0,2.8-1.2,2.8-2.8
					C393,256.7,391.8,255.5,390.2,255.5"/>
				<path id="Fill-63_1_" class="st2" d="M389.7,256.6c-0.7,0-1.1,0.8-1.1,1.7s0.4,1.7,1.1,1.7s1.1-0.8,1.1-1.7
					S390.3,256.6,389.7,256.6"/>
				<path id="Fill-65_1_" class="st1" d="M99,274.3c-1.9,0-3.3,1.8-3.3,3.9s1.4,3.9,3.3,3.9c1.9,0,3.3-1.8,3.3-3.9
					S100.9,274.3,99,274.3"/>
				<path id="Fill-67_1_" class="st2" d="M99,275.4c-1.2,0-2.2,1-2.2,2.2c0,1.2,1,2.2,2.2,2.2s2.2-1,2.2-2.2
					C101.3,276.4,100.3,275.4,99,275.4"/>
				<path id="Fill-69_1_" class="st1" d="M315.1,240c-1.5,0-2.8,1.2-2.8,2.8s1.2,2.8,2.8,2.8s2.8-1.2,2.8-2.8S316.6,240,315.1,240"
					/>
				<path id="Fill-71_1_" class="st2" d="M315.6,241.1c-0.7,0-1.1,0.8-1.1,1.7s0.4,1.7,1.1,1.7c0.7,0,1.1-0.8,1.1-1.7
					S316.3,241.1,315.6,241.1"/>
				<path id="Fill-73_1_" class="st1" d="M258.2,237.8c-1.2,0-2.2,1-2.2,2.2c0,1.2,1,2.2,2.2,2.2c1.2,0,2.2-1,2.2-2.2
					C260.4,238.8,259.4,237.8,258.2,237.8"/>
				<path id="Fill-75_1_" class="st2" d="M257.6,240c-0.3,0-0.6,0.2-0.6,0.6c0,0.3,0.2,0.6,0.6,0.6s0.6-0.2,0.6-0.6
					C258.2,240.2,257.9,240,257.6,240"/>
				<path id="Fill-77_1_" class="st1" d="M279.2,290.9c-1.2,0-2.2,1-2.2,2.2c0,1.2,1,2.2,2.2,2.2c1.2,0,2.2-1,2.2-2.2
					C281.4,291.9,280.4,290.9,279.2,290.9"/>
				<path id="Fill-79_1_" class="st2" d="M279.7,293.1c-0.3,0-0.6,0.2-0.6,0.6s0.2,0.6,0.6,0.6s0.6-0.2,0.6-0.6
					S280,293.1,279.7,293.1"/>
				<path id="Fill-85_1_" class="st1" d="M261.5,276.5c-1.2,0-2.2,1-2.2,2.2s1,2.2,2.2,2.2s2.2-1,2.2-2.2S262.7,276.5,261.5,276.5"
					/>
				<path id="Fill-87_1_" class="st2" d="M262,278.7c-0.3,0-0.6,0.2-0.6,0.6c0,0.3,0.2,0.6,0.6,0.6c0.3,0,0.6-0.2,0.6-0.6
					C262.6,278.9,262.4,278.7,262,278.7"/>
				<path id="Fill-89_1_" class="st1" d="M2.9,250c-1.2,0-2.2,1-2.2,2.2c0,1.2,1,2.2,2.2,2.2s2.2-1,2.2-2.2
					C5.1,250.9,4.1,250,2.9,250"/>
				<path id="Fill-91_1_" class="st2" d="M2.4,251.1c-0.3,0-0.6,0.2-0.6,0.6s0.2,0.6,0.6,0.6s0.6-0.2,0.6-0.6S2.7,251.1,2.4,251.1"
					/>
				<path id="Fill-104-Copy_1_" class="st3" d="M383.3,254.2h-152l5.9-1.8c6.1-1.9,8.6-5.7,18.7-0.6h0.1l0,0c7.8-4.4,15.7-4.7,23-1
					l2.1,0.4l6.7-0.1c5-14,17.6-18.9,32.2-18.9c14.4,0,26.7,4.5,32,17.9l2.9-0.1c8.6-1.9,17.5-1,25.5,2.7L383.3,254.2z"/>
				<path id="Fill-106_1_" class="st3" d="M24.8,216.3h87l-3.3-1c-3.5-1.1-4.8-3.1-10.7-0.3h-0.1c-4.4-2.4-9-2.6-13.1-0.5l-1.2,0.3
					l-3.9-0.1c-2.9-7.7-10.1-10.3-18.5-10.3c-8.2,0-15.3,2.5-18.3,9.8h-1.7c-4.9-1.1-10-0.5-14.6,1.5L24.8,216.3z"/>
				<path id="Fill-108_1_" class="st3" d="M1.5,299h102.8l-4-1.2c-4.1-1.2-5.7-3.8-12.6-0.3h-0.1c-5.3-2.9-10.6-3.1-15.6-0.7
					l-1.4,0.3L66,297c-3.4-9.2-11.9-12.4-21.9-12.4c-9.7,0-18,3-21.5,11.7h-2c-5.7-1.2-11.8-0.7-17.2,1.8L1.5,299z"/>
			</g>
		</g>
	</g>
</g>
</svg>
