<?xml version="1.0" encoding="UTF-8"?>
<svg width="393px" height="150px" viewBox="0 0 393 150" version="1.1" xmlns="http://www.w3.org/2000/svg" xmlns:xlink="http://www.w3.org/1999/xlink">
    <title>fondo_perfil</title>
    <g id="Page-1" stroke="none" stroke-width="1" fill="none" fill-rule="evenodd">
        <g id="GaliciaWeather_perfil" transform="translate(-14.000000, -39.000000)">
            <g id="fondo_perfil" transform="translate(14.000000, 39.000000)">
                <g id="Group-110" transform="translate(0.000000, 0.491457)">
                    <path d="M89.6542811,58.6462312 C88.1072698,58.6462312 86.8917609,59.8634171 86.8917609,61.4125628 C86.8917609,62.9617085 88.1072698,64.1788945 89.6542811,64.1788945 C91.2012924,64.1788945 92.4168013,62.9617085 92.4168013,61.4125628 C92.4168013,59.8634171 91.2012924,58.6462312 89.6542811,58.6462312" id="Fill-1" fill="#6685CC"></path>
                    <path d="M90.2067851,59.7527638 C89.5437803,59.7527638 89.1017771,60.5273367 89.1017771,61.4125628 C89.1017771,62.2977889 89.5437803,63.0723618 90.2067851,63.0723618 C90.86979,63.0723618 91.3117932,62.2977889 91.3117932,61.4125628 C91.3117932,60.5273367 90.86979,59.7527638 90.2067851,59.7527638" id="Fill-3" fill="#FFFFFF"></path>
                    <path d="M129.434572,76.3507538 C127.887561,76.3507538 126.672052,77.5679397 126.672052,79.1170854 C126.672052,80.6662312 127.887561,81.8834171 129.434572,81.8834171 C130.981583,81.8834171 132.197092,80.6662312 132.197092,79.1170854 C132.197092,77.5679397 130.981583,76.3507538 129.434572,76.3507538" id="Fill-5" fill="#6685CC"></path>
                    <path d="M129.987076,77.4572864 C129.324071,77.4572864 128.882068,78.2318593 128.882068,79.1170854 C128.882068,80.0023116 129.324071,80.7768844 129.987076,80.7768844 C130.650081,80.7768844 131.092084,80.0023116 131.092084,79.1170854 C131.092084,78.2318593 130.650081,77.4572864 129.987076,77.4572864" id="Fill-7" fill="#FFFFFF"></path>
                    <path d="M79.7092084,104.01407 C78.1621971,104.01407 76.9466882,105.231256 76.9466882,106.780402 C76.9466882,108.329548 78.1621971,109.546734 79.7092084,109.546734 C81.2562197,109.546734 82.4717286,108.329548 82.4717286,106.780402 C82.4717286,105.231256 81.2562197,104.01407 79.7092084,104.01407" id="Fill-9" fill="#6685CC"></path>
                    <path d="M79.1567044,105.120603 C78.4936995,105.120603 78.0516963,105.895176 78.0516963,106.780402 C78.0516963,107.665628 78.4936995,108.440201 79.1567044,108.440201 C79.8197092,108.440201 80.2617124,107.665628 80.2617124,106.780402 C80.2617124,105.895176 79.8197092,105.120603 79.1567044,105.120603" id="Fill-11" fill="#FFFFFF"></path>
                    <path d="M141.037157,0 C139.821648,0 138.827141,0.995879397 138.827141,2.21306533 C138.827141,3.43025126 139.821648,4.42613065 141.037157,4.42613065 C142.252666,4.42613065 143.247173,3.43025126 143.247173,2.21306533 C143.247173,0.995879397 142.252666,0 141.037157,0" id="Fill-13" fill="#6685CC"></path>
                    <path d="M141.589661,1.10653266 C141.258158,1.10653266 141.037157,1.3278392 141.037157,1.65979899 C141.037157,1.99175879 141.258158,2.21306533 141.589661,2.21306533 C141.921163,2.21306533 142.142165,1.99175879 142.142165,1.65979899 C142.142165,1.3278392 141.921163,1.10653266 141.589661,1.10653266" id="Fill-15" fill="#FFFFFF"></path>
                    <path d="M93.5218094,96.2683417 C92.3063005,96.2683417 91.3117932,97.2642211 91.3117932,98.481407 C91.3117932,99.698593 92.3063005,100.694472 93.5218094,100.694472 C94.7373183,100.694472 95.7318255,99.698593 95.7318255,98.481407 C95.7318255,97.2642211 94.7373183,96.2683417 93.5218094,96.2683417" id="Fill-17" fill="#6685CC"></path>
                    <path d="M94.0743134,98.481407 C93.742811,98.481407 93.5218094,98.7027136 93.5218094,99.0346734 C93.5218094,99.3666332 93.742811,99.5879397 94.0743134,99.5879397 C94.4058158,99.5879397 94.6268174,99.3666332 94.6268174,99.0346734 C94.6268174,98.7027136 94.4058158,98.481407 94.0743134,98.481407" id="Fill-19" fill="#FFFFFF"></path>
                    <path d="M59.266559,34.3025126 C58.0510501,34.3025126 57.0565428,35.298392 57.0565428,36.5155779 C57.0565428,37.7327638 58.0510501,38.7286432 59.266559,38.7286432 C60.4820679,38.7286432 61.4765751,37.7327638 61.4765751,36.5155779 C61.4765751,35.298392 60.4820679,34.3025126 59.266559,34.3025126" id="Fill-21" fill="#6685CC"></path>
                    <path d="M59.819063,36.5155779 C59.4875606,36.5155779 59.266559,36.7368844 59.266559,37.0688442 C59.266559,37.400804 59.4875606,37.6221106 59.819063,37.6221106 C60.1505654,37.6221106 60.371567,37.400804 60.371567,37.0688442 C60.371567,36.7368844 60.1505654,36.5155779 59.819063,36.5155779" id="Fill-23" fill="#FFFFFF"></path>
                    <path d="M323.915994,52.0070352 C322.368982,52.0070352 321.153473,53.2242211 321.153473,54.7733668 C321.153473,56.3225126 322.368982,57.5396985 323.915994,57.5396985 C325.463005,57.5396985 326.678514,56.3225126 326.678514,54.7733668 C326.678514,53.2242211 325.463005,52.0070352 323.915994,52.0070352" id="Fill-25" fill="#6685CC"></path>
                    <path d="M323.363489,53.1135678 C322.700485,53.1135678 322.258481,53.8881407 322.258481,54.7733668 C322.258481,55.658593 322.700485,56.4331658 323.363489,56.4331658 C324.026494,56.4331658 324.468498,55.658593 324.468498,54.7733668 C324.468498,53.8881407 324.026494,53.1135678 323.363489,53.1135678" id="Fill-27" fill="#FFFFFF"></path>
                    <path d="M271.980614,75.2442211 C270.433603,75.2442211 269.218094,76.461407 269.218094,78.0105528 C269.218094,79.5596985 270.433603,80.7768844 271.980614,80.7768844 C273.527625,80.7768844 274.743134,79.5596985 274.743134,78.0105528 C274.743134,76.461407 273.527625,75.2442211 271.980614,75.2442211" id="Fill-29" fill="#6685CC"></path>
                    <path d="M272.533118,76.3507538 C271.317609,76.3507538 270.323102,77.3466332 270.323102,78.5638191 C270.323102,79.781005 271.317609,80.7768844 272.533118,80.7768844 C273.748627,80.7768844 274.743134,79.781005 274.743134,78.5638191 C274.743134,77.3466332 273.748627,76.3507538 272.533118,76.3507538" id="Fill-31" fill="#FFFFFF"></path>
                    <path d="M242.145396,15.4914573 C240.598384,15.4914573 239.382876,16.7086432 239.382876,18.2577889 C239.382876,19.8069347 240.598384,21.0241206 242.145396,21.0241206 C243.692407,21.0241206 244.907916,19.8069347 244.907916,18.2577889 C244.907916,16.7086432 243.692407,15.4914573 242.145396,15.4914573" id="Fill-37" fill="#6685CC"></path>
                    <path d="M241.592892,16.5979899 C240.929887,16.5979899 240.487884,17.3725628 240.487884,18.2577889 C240.487884,19.1430151 240.929887,19.9175879 241.592892,19.9175879 C242.255897,19.9175879 242.6979,19.1430151 242.6979,18.2577889 C242.6979,17.3725628 242.255897,16.5979899 241.592892,16.5979899" id="Fill-39" fill="#FFFFFF"></path>
                    <path d="M300.710824,119.505528 C299.163813,119.505528 297.948304,120.722714 297.948304,122.271859 C297.948304,123.821005 299.163813,125.038191 300.710824,125.038191 C302.257835,125.038191 303.473344,123.821005 303.473344,122.271859 C303.473344,120.722714 302.257835,119.505528 300.710824,119.505528" id="Fill-41" fill="#6685CC"></path>
                    <path d="M300.15832,120.61206 C299.495315,120.61206 299.053312,121.386633 299.053312,122.271859 C299.053312,123.157085 299.495315,123.931658 300.15832,123.931658 C300.821325,123.931658 301.263328,123.157085 301.263328,122.271859 C301.263328,121.386633 300.821325,120.61206 300.15832,120.61206" id="Fill-43" fill="#FFFFFF"></path>
                    <path d="M16.723748,27.6633166 C15.1767367,27.6633166 13.9612278,28.8805025 13.9612278,30.4296482 C13.9612278,31.978794 15.1767367,33.1959799 16.723748,33.1959799 C18.2707593,33.1959799 19.4862682,31.978794 19.4862682,30.4296482 C19.4862682,28.8805025 18.2707593,27.6633166 16.723748,27.6633166" id="Fill-49" fill="#6685CC"></path>
                    <path d="M17.276252,28.7698492 C16.6132472,28.7698492 16.1712439,29.5444221 16.1712439,30.4296482 C16.1712439,31.3148744 16.6132472,32.0894472 17.276252,32.0894472 C17.9392569,32.0894472 18.3812601,31.3148744 18.3812601,30.4296482 C18.3812601,29.5444221 17.9392569,28.7698492 17.276252,28.7698492" id="Fill-51" fill="#FFFFFF"></path>
                    <path d="M355.408724,0 C354.193215,0 353.198708,0.995879397 353.198708,2.21306533 C353.198708,3.43025126 354.193215,4.42613065 355.408724,4.42613065 C356.624233,4.42613065 357.61874,3.43025126 357.61874,2.21306533 C357.61874,0.995879397 356.624233,0 355.408724,0" id="Fill-53" fill="#6685CC"></path>
                    <path d="M353.751212,3.31959799 C353.419709,3.31959799 353.198708,3.54090452 353.198708,3.87286432 C353.198708,4.20482412 353.419709,4.42613065 353.751212,4.42613065 C354.082714,4.42613065 354.303716,4.20482412 354.303716,3.87286432 C354.303716,3.54090452 354.082714,3.31959799 353.751212,3.31959799" id="Fill-55" fill="#FFFFFF"></path>
                    <path d="M390.216478,105.120603 C388.669467,105.120603 387.453958,106.337789 387.453958,107.886935 C387.453958,109.43608 388.669467,110.653266 390.216478,110.653266 C391.763489,110.653266 392.978998,109.43608 392.978998,107.886935 C392.978998,106.337789 391.763489,105.120603 390.216478,105.120603" id="Fill-61" fill="#6685CC"></path>
                    <path d="M389.663974,106.227136 C389.000969,106.227136 388.558966,107.001709 388.558966,107.886935 C388.558966,108.772161 389.000969,109.546734 389.663974,109.546734 C390.326979,109.546734 390.768982,108.772161 390.768982,107.886935 C390.768982,107.001709 390.326979,106.227136 389.663974,106.227136" id="Fill-63" fill="#FFFFFF"></path>
                    <path d="M99.0468498,123.931658 C97.168336,123.931658 95.7318255,125.702111 95.7318255,127.804523 C95.7318255,129.906935 97.168336,131.677387 99.0468498,131.677387 C100.925363,131.677387 102.361874,129.906935 102.361874,127.804523 C102.361874,125.702111 100.925363,123.931658 99.0468498,123.931658" id="Fill-65" fill="#6685CC"></path>
                    <path d="M99.0468498,125.038191 C97.8313409,125.038191 96.8368336,126.03407 96.8368336,127.251256 C96.8368336,128.468442 97.8313409,129.464322 99.0468498,129.464322 C100.262359,129.464322 101.256866,128.468442 101.256866,127.251256 C101.256866,126.03407 100.262359,125.038191 99.0468498,125.038191" id="Fill-67" fill="#FFFFFF"></path>
                    <path d="M315.075929,89.6291457 C313.528918,89.6291457 312.313409,90.8463317 312.313409,92.3954774 C312.313409,93.9446231 313.528918,95.161809 315.075929,95.161809 C316.62294,95.161809 317.838449,93.9446231 317.838449,92.3954774 C317.838449,90.8463317 316.62294,89.6291457 315.075929,89.6291457" id="Fill-69" fill="#6685CC"></path>
                    <path d="M315.628433,90.7356784 C314.965428,90.7356784 314.523425,91.5102513 314.523425,92.3954774 C314.523425,93.2807035 314.965428,94.0552764 315.628433,94.0552764 C316.291438,94.0552764 316.733441,93.2807035 316.733441,92.3954774 C316.733441,91.5102513 316.291438,90.7356784 315.628433,90.7356784" id="Fill-71" fill="#FFFFFF"></path>
                    <path d="M258.168013,87.4160804 C256.952504,87.4160804 255.957997,88.4119598 255.957997,89.6291457 C255.957997,90.8463317 256.952504,91.8422111 258.168013,91.8422111 C259.383522,91.8422111 260.378029,90.8463317 260.378029,89.6291457 C260.378029,88.4119598 259.383522,87.4160804 258.168013,87.4160804" id="Fill-73" fill="#6685CC"></path>
                    <path d="M257.615509,89.6291457 C257.284006,89.6291457 257.063005,89.8504523 257.063005,90.1824121 C257.063005,90.5143719 257.284006,90.7356784 257.615509,90.7356784 C257.947011,90.7356784 258.168013,90.5143719 258.168013,90.1824121 C258.168013,89.8504523 257.947011,89.6291457 257.615509,89.6291457" id="Fill-75" fill="#FFFFFF"></path>
                    <path d="M279.163166,140.529648 C277.947658,140.529648 276.95315,141.525528 276.95315,142.742714 C276.95315,143.959899 277.947658,144.955779 279.163166,144.955779 C280.378675,144.955779 281.373183,143.959899 281.373183,142.742714 C281.373183,141.525528 280.378675,140.529648 279.163166,140.529648" id="Fill-77" fill="#6685CC"></path>
                    <path d="M279.71567,142.742714 C279.384168,142.742714 279.163166,142.96402 279.163166,143.29598 C279.163166,143.62794 279.384168,143.849246 279.71567,143.849246 C280.047173,143.849246 280.268174,143.62794 280.268174,143.29598 C280.268174,142.96402 280.047173,142.742714 279.71567,142.742714" id="Fill-79" fill="#FFFFFF"></path>
                    <path d="M261.483037,126.144724 C260.267528,126.144724 259.273021,127.140603 259.273021,128.357789 C259.273021,129.574975 260.267528,130.570854 261.483037,130.570854 C262.698546,130.570854 263.693053,129.574975 263.693053,128.357789 C263.693053,127.140603 262.698546,126.144724 261.483037,126.144724" id="Fill-85" fill="#6685CC"></path>
                    <path d="M262.035541,128.357789 C261.704039,128.357789 261.483037,128.579095 261.483037,128.911055 C261.483037,129.243015 261.704039,129.464322 262.035541,129.464322 C262.367044,129.464322 262.588045,129.243015 262.588045,128.911055 C262.588045,128.579095 262.367044,128.357789 262.035541,128.357789" id="Fill-87" fill="#FFFFFF"></path>
                    <path d="M2.91114701,99.5879397 C1.69563813,99.5879397 0.701130856,100.583819 0.701130856,101.801005 C0.701130856,103.018191 1.69563813,104.01407 2.91114701,104.01407 C4.1266559,104.01407 5.12116317,103.018191 5.12116317,101.801005 C5.12116317,100.583819 4.1266559,99.5879397 2.91114701,99.5879397" id="Fill-89" fill="#6685CC"></path>
                    <path d="M2.35864297,100.694472 C2.02714055,100.694472 1.80613893,100.915779 1.80613893,101.247739 C1.80613893,101.579698 2.02714055,101.801005 2.35864297,101.801005 C2.6901454,101.801005 2.91114701,101.579698 2.91114701,101.247739 C2.91114701,100.915779 2.6901454,100.694472 2.35864297,100.694472" id="Fill-91" fill="#FFFFFF"></path>
                    <path d="M390,131.876382 L217,131.876382 L223.678605,129.779608 C230.598605,127.602188 233.414884,123.24735 244.921395,129.134446 L245.082326,129.134446 L245.082326,129.134446 C253.933488,124.134446 262.945581,123.811866 271.233488,128.005414 L273.566977,128.489285 L281.211163,128.40864 C286.924186,112.521543 301.246977,106.876382 317.903256,106.876382 C334.237674,106.876382 348.238605,111.957027 354.273488,127.279608 L357.572558,127.198963 C367.308837,125.021543 377.447442,126.06993 386.620465,130.263479 L390,131.876382 Z" id="Fill-104-Copy" fill="#FEF9EE"></path>
                    <path d="M24.8174475,65.9316583 L111.817447,65.9316583 L108.496837,64.9316583 C105.043402,63.8649916 103.648745,61.798325 97.8044704,64.598325 L97.7380582,64.598325 C93.2884399,62.198325 88.7724093,61.998325 84.5884399,64.0649916 L83.39302,64.3316583 L79.5411116,64.2649916 C76.6189742,56.598325 69.4464551,53.9316583 61.0785162,53.9316583 C52.9098139,53.9316583 45.803707,56.398325 42.8151574,63.7316583 L41.1548521,63.7316583 C36.2403483,62.6649916 31.1266078,63.198325 26.5441651,65.198325 L24.8174475,65.9316583 Z" id="Fill-106" fill="#FEF9EE"></path>
                    <path d="M1.50080775,148.660302 L104.266559,148.660302 L100.28853,147.443116 C96.2,146.22593 94.5424879,143.680905 87.6914378,147.111156 L87.580937,147.111156 C82.2768982,144.234171 76.9728595,144.012864 72.0003231,146.447236 L70.5638126,146.779196 L66.0332795,146.668543 C62.6077544,137.484322 54.0991922,134.275377 44.1541195,134.275377 C34.4300485,134.275377 26.1424879,137.263015 22.606462,146.004623 L20.6174475,146.004623 C14.8714055,144.787437 8.79386107,145.340704 3.37932149,147.775075 L1.50080775,148.660302 Z" id="Fill-108" fill="#FEF9EE"></path>
                    <path d="M284.500808,16.6603015 L387.266559,16.6603015 L383.28853,15.4431156 C379.2,14.2259296 377.542488,11.6809045 370.691438,15.1111558 L370.580937,15.1111558 C365.276898,12.2341709 359.972859,12.0128643 355.000323,14.4472362 L353.563813,14.779196 L349.033279,14.6685427 C345.607754,5.48432161 337.099192,2.27537688 327.15412,2.27537688 C317.430048,2.27537688 309.142488,5.26301508 305.606462,14.0046231 L303.617447,14.0046231 C297.871405,12.7874372 291.793861,13.3407035 286.379321,15.7750754 L284.500808,16.6603015 Z" id="Fill-108-Copy" fill="#FEF9EE"></path>
                </g>
            </g>
        </g>
    </g>
</svg>