<?xml version="1.0" encoding="UTF-8"?>
<svg width="412px" height="992px" viewBox="0 0 412 992" version="1.1" xmlns="http://www.w3.org/2000/svg" xmlns:xlink="http://www.w3.org/1999/xlink">
    <title>fondo_perfil</title>
    <defs>
        <linearGradient x1="49.9960194%" y1="0.000322580649%" x2="49.9960194%" y2="100.000323%" id="linearGradient-1">
            <stop stop-color="#141E4D" offset="0%"></stop>
            <stop stop-color="#D8D8D8" offset="100%"></stop>
        </linearGradient>
    </defs>
    <g id="Page-1" stroke="none" stroke-width="1" fill="none" fill-rule="evenodd">
        <g id="fondo_perfil" transform="translate(-140.000000, -4.000000)">
            <g id="fondo_perfil">
                <rect id="Rectangle" fill="url(#linearGradient-1)" x="121.550889" y="0.68040201" width="455.263328" height="1125"></rect>
                <g id="Group-110" transform="translate(0.000000, 43.491457)">
                    <path d="M243.654281,58.6462312 C242.10727,58.6462312 240.891761,59.8634171 240.891761,61.4125628 C240.891761,62.9617085 242.10727,64.1788945 243.654281,64.1788945 C245.201292,64.1788945 246.416801,62.9617085 246.416801,61.4125628 C246.416801,59.8634171 245.201292,58.6462312 243.654281,58.6462312" id="Fill-1" fill="#6685CC"></path>
                    <path d="M244.206785,59.7527638 C243.54378,59.7527638 243.101777,60.5273367 243.101777,61.4125628 C243.101777,62.2977889 243.54378,63.0723618 244.206785,63.0723618 C244.86979,63.0723618 245.311793,62.2977889 245.311793,61.4125628 C245.311793,60.5273367 244.86979,59.7527638 244.206785,59.7527638" id="Fill-3" fill="#FFFFFF"></path>
                    <path d="M283.434572,76.3507538 C281.887561,76.3507538 280.672052,77.5679397 280.672052,79.1170854 C280.672052,80.6662312 281.887561,81.8834171 283.434572,81.8834171 C284.981583,81.8834171 286.197092,80.6662312 286.197092,79.1170854 C286.197092,77.5679397 284.981583,76.3507538 283.434572,76.3507538" id="Fill-5" fill="#6685CC"></path>
                    <path d="M283.987076,77.4572864 C283.324071,77.4572864 282.882068,78.2318593 282.882068,79.1170854 C282.882068,80.0023116 283.324071,80.7768844 283.987076,80.7768844 C284.650081,80.7768844 285.092084,80.0023116 285.092084,79.1170854 C285.092084,78.2318593 284.650081,77.4572864 283.987076,77.4572864" id="Fill-7" fill="#FFFFFF"></path>
                    <path d="M233.709208,104.01407 C232.162197,104.01407 230.946688,105.231256 230.946688,106.780402 C230.946688,108.329548 232.162197,109.546734 233.709208,109.546734 C235.25622,109.546734 236.471729,108.329548 236.471729,106.780402 C236.471729,105.231256 235.25622,104.01407 233.709208,104.01407" id="Fill-9" fill="#6685CC"></path>
                    <path d="M233.156704,105.120603 C232.4937,105.120603 232.051696,105.895176 232.051696,106.780402 C232.051696,107.665628 232.4937,108.440201 233.156704,108.440201 C233.819709,108.440201 234.261712,107.665628 234.261712,106.780402 C234.261712,105.895176 233.819709,105.120603 233.156704,105.120603" id="Fill-11" fill="#FFFFFF"></path>
                    <path d="M295.037157,0 C293.821648,0 292.827141,0.995879397 292.827141,2.21306533 C292.827141,3.43025126 293.821648,4.42613065 295.037157,4.42613065 C296.252666,4.42613065 297.247173,3.43025126 297.247173,2.21306533 C297.247173,0.995879397 296.252666,0 295.037157,0" id="Fill-13" fill="#6685CC"></path>
                    <path d="M295.589661,1.10653266 C295.258158,1.10653266 295.037157,1.3278392 295.037157,1.65979899 C295.037157,1.99175879 295.258158,2.21306533 295.589661,2.21306533 C295.921163,2.21306533 296.142165,1.99175879 296.142165,1.65979899 C296.142165,1.3278392 295.921163,1.10653266 295.589661,1.10653266" id="Fill-15" fill="#FFFFFF"></path>
                    <path d="M247.521809,96.2683417 C246.3063,96.2683417 245.311793,97.2642211 245.311793,98.481407 C245.311793,99.698593 246.3063,100.694472 247.521809,100.694472 C248.737318,100.694472 249.731826,99.698593 249.731826,98.481407 C249.731826,97.2642211 248.737318,96.2683417 247.521809,96.2683417" id="Fill-17" fill="#6685CC"></path>
                    <path d="M248.074313,98.481407 C247.742811,98.481407 247.521809,98.7027136 247.521809,99.0346734 C247.521809,99.3666332 247.742811,99.5879397 248.074313,99.5879397 C248.405816,99.5879397 248.626817,99.3666332 248.626817,99.0346734 C248.626817,98.7027136 248.405816,98.481407 248.074313,98.481407" id="Fill-19" fill="#FFFFFF"></path>
                    <path d="M213.266559,34.3025126 C212.05105,34.3025126 211.056543,35.298392 211.056543,36.5155779 C211.056543,37.7327638 212.05105,38.7286432 213.266559,38.7286432 C214.482068,38.7286432 215.476575,37.7327638 215.476575,36.5155779 C215.476575,35.298392 214.482068,34.3025126 213.266559,34.3025126" id="Fill-21" fill="#6685CC"></path>
                    <path d="M213.819063,36.5155779 C213.487561,36.5155779 213.266559,36.7368844 213.266559,37.0688442 C213.266559,37.400804 213.487561,37.6221106 213.819063,37.6221106 C214.150565,37.6221106 214.371567,37.400804 214.371567,37.0688442 C214.371567,36.7368844 214.150565,36.5155779 213.819063,36.5155779" id="Fill-23" fill="#FFFFFF"></path>
                    <path d="M477.915994,52.0070352 C476.368982,52.0070352 475.153473,53.2242211 475.153473,54.7733668 C475.153473,56.3225126 476.368982,57.5396985 477.915994,57.5396985 C479.463005,57.5396985 480.678514,56.3225126 480.678514,54.7733668 C480.678514,53.2242211 479.463005,52.0070352 477.915994,52.0070352" id="Fill-25" fill="#6685CC"></path>
                    <path d="M477.363489,53.1135678 C476.700485,53.1135678 476.258481,53.8881407 476.258481,54.7733668 C476.258481,55.658593 476.700485,56.4331658 477.363489,56.4331658 C478.026494,56.4331658 478.468498,55.658593 478.468498,54.7733668 C478.468498,53.8881407 478.026494,53.1135678 477.363489,53.1135678" id="Fill-27" fill="#FFFFFF"></path>
                    <path d="M425.980614,75.2442211 C424.433603,75.2442211 423.218094,76.461407 423.218094,78.0105528 C423.218094,79.5596985 424.433603,80.7768844 425.980614,80.7768844 C427.527625,80.7768844 428.743134,79.5596985 428.743134,78.0105528 C428.743134,76.461407 427.527625,75.2442211 425.980614,75.2442211" id="Fill-29" fill="#6685CC"></path>
                    <path d="M426.533118,76.3507538 C425.317609,76.3507538 424.323102,77.3466332 424.323102,78.5638191 C424.323102,79.781005 425.317609,80.7768844 426.533118,80.7768844 C427.748627,80.7768844 428.743134,79.781005 428.743134,78.5638191 C428.743134,77.3466332 427.748627,76.3507538 426.533118,76.3507538" id="Fill-31" fill="#FFFFFF"></path>
                    <path d="M396.145396,15.4914573 C394.598384,15.4914573 393.382876,16.7086432 393.382876,18.2577889 C393.382876,19.8069347 394.598384,21.0241206 396.145396,21.0241206 C397.692407,21.0241206 398.907916,19.8069347 398.907916,18.2577889 C398.907916,16.7086432 397.692407,15.4914573 396.145396,15.4914573" id="Fill-37" fill="#6685CC"></path>
                    <path d="M395.592892,16.5979899 C394.929887,16.5979899 394.487884,17.3725628 394.487884,18.2577889 C394.487884,19.1430151 394.929887,19.9175879 395.592892,19.9175879 C396.255897,19.9175879 396.6979,19.1430151 396.6979,18.2577889 C396.6979,17.3725628 396.255897,16.5979899 395.592892,16.5979899" id="Fill-39" fill="#FFFFFF"></path>
                    <path d="M454.710824,119.505528 C453.163813,119.505528 451.948304,120.722714 451.948304,122.271859 C451.948304,123.821005 453.163813,125.038191 454.710824,125.038191 C456.257835,125.038191 457.473344,123.821005 457.473344,122.271859 C457.473344,120.722714 456.257835,119.505528 454.710824,119.505528" id="Fill-41" fill="#6685CC"></path>
                    <path d="M454.15832,120.61206 C453.495315,120.61206 453.053312,121.386633 453.053312,122.271859 C453.053312,123.157085 453.495315,123.931658 454.15832,123.931658 C454.821325,123.931658 455.263328,123.157085 455.263328,122.271859 C455.263328,121.386633 454.821325,120.61206 454.15832,120.61206" id="Fill-43" fill="#FFFFFF"></path>
                    <path d="M170.723748,27.6633166 C169.176737,27.6633166 167.961228,28.8805025 167.961228,30.4296482 C167.961228,31.978794 169.176737,33.1959799 170.723748,33.1959799 C172.270759,33.1959799 173.486268,31.978794 173.486268,30.4296482 C173.486268,28.8805025 172.270759,27.6633166 170.723748,27.6633166" id="Fill-49" fill="#6685CC"></path>
                    <path d="M171.276252,28.7698492 C170.613247,28.7698492 170.171244,29.5444221 170.171244,30.4296482 C170.171244,31.3148744 170.613247,32.0894472 171.276252,32.0894472 C171.939257,32.0894472 172.38126,31.3148744 172.38126,30.4296482 C172.38126,29.5444221 171.939257,28.7698492 171.276252,28.7698492" id="Fill-51" fill="#FFFFFF"></path>
                    <path d="M509.408724,0 C508.193215,0 507.198708,0.995879397 507.198708,2.21306533 C507.198708,3.43025126 508.193215,4.42613065 509.408724,4.42613065 C510.624233,4.42613065 511.61874,3.43025126 511.61874,2.21306533 C511.61874,0.995879397 510.624233,0 509.408724,0" id="Fill-53" fill="#6685CC"></path>
                    <path d="M507.751212,3.31959799 C507.419709,3.31959799 507.198708,3.54090452 507.198708,3.87286432 C507.198708,4.20482412 507.419709,4.42613065 507.751212,4.42613065 C508.082714,4.42613065 508.303716,4.20482412 508.303716,3.87286432 C508.303716,3.54090452 508.082714,3.31959799 507.751212,3.31959799" id="Fill-55" fill="#FFFFFF"></path>
                    <path d="M544.216478,105.120603 C542.669467,105.120603 541.453958,106.337789 541.453958,107.886935 C541.453958,109.43608 542.669467,110.653266 544.216478,110.653266 C545.763489,110.653266 546.978998,109.43608 546.978998,107.886935 C546.978998,106.337789 545.763489,105.120603 544.216478,105.120603" id="Fill-61" fill="#6685CC"></path>
                    <path d="M543.663974,106.227136 C543.000969,106.227136 542.558966,107.001709 542.558966,107.886935 C542.558966,108.772161 543.000969,109.546734 543.663974,109.546734 C544.326979,109.546734 544.768982,108.772161 544.768982,107.886935 C544.768982,107.001709 544.326979,106.227136 543.663974,106.227136" id="Fill-63" fill="#FFFFFF"></path>
                    <path d="M253.04685,123.931658 C251.168336,123.931658 249.731826,125.702111 249.731826,127.804523 C249.731826,129.906935 251.168336,131.677387 253.04685,131.677387 C254.925363,131.677387 256.361874,129.906935 256.361874,127.804523 C256.361874,125.702111 254.925363,123.931658 253.04685,123.931658" id="Fill-65" fill="#6685CC"></path>
                    <path d="M253.04685,125.038191 C251.831341,125.038191 250.836834,126.03407 250.836834,127.251256 C250.836834,128.468442 251.831341,129.464322 253.04685,129.464322 C254.262359,129.464322 255.256866,128.468442 255.256866,127.251256 C255.256866,126.03407 254.262359,125.038191 253.04685,125.038191" id="Fill-67" fill="#FFFFFF"></path>
                    <path d="M469.075929,89.6291457 C467.528918,89.6291457 466.313409,90.8463317 466.313409,92.3954774 C466.313409,93.9446231 467.528918,95.161809 469.075929,95.161809 C470.62294,95.161809 471.838449,93.9446231 471.838449,92.3954774 C471.838449,90.8463317 470.62294,89.6291457 469.075929,89.6291457" id="Fill-69" fill="#6685CC"></path>
                    <path d="M469.628433,90.7356784 C468.965428,90.7356784 468.523425,91.5102513 468.523425,92.3954774 C468.523425,93.2807035 468.965428,94.0552764 469.628433,94.0552764 C470.291438,94.0552764 470.733441,93.2807035 470.733441,92.3954774 C470.733441,91.5102513 470.291438,90.7356784 469.628433,90.7356784" id="Fill-71" fill="#FFFFFF"></path>
                    <path d="M412.168013,87.4160804 C410.952504,87.4160804 409.957997,88.4119598 409.957997,89.6291457 C409.957997,90.8463317 410.952504,91.8422111 412.168013,91.8422111 C413.383522,91.8422111 414.378029,90.8463317 414.378029,89.6291457 C414.378029,88.4119598 413.383522,87.4160804 412.168013,87.4160804" id="Fill-73" fill="#6685CC"></path>
                    <path d="M411.615509,89.6291457 C411.284006,89.6291457 411.063005,89.8504523 411.063005,90.1824121 C411.063005,90.5143719 411.284006,90.7356784 411.615509,90.7356784 C411.947011,90.7356784 412.168013,90.5143719 412.168013,90.1824121 C412.168013,89.8504523 411.947011,89.6291457 411.615509,89.6291457" id="Fill-75" fill="#FFFFFF"></path>
                    <path d="M433.163166,140.529648 C431.947658,140.529648 430.95315,141.525528 430.95315,142.742714 C430.95315,143.959899 431.947658,144.955779 433.163166,144.955779 C434.378675,144.955779 435.373183,143.959899 435.373183,142.742714 C435.373183,141.525528 434.378675,140.529648 433.163166,140.529648" id="Fill-77" fill="#6685CC"></path>
                    <path d="M433.71567,142.742714 C433.384168,142.742714 433.163166,142.96402 433.163166,143.29598 C433.163166,143.62794 433.384168,143.849246 433.71567,143.849246 C434.047173,143.849246 434.268174,143.62794 434.268174,143.29598 C434.268174,142.96402 434.047173,142.742714 433.71567,142.742714" id="Fill-79" fill="#FFFFFF"></path>
                    <path d="M415.483037,126.144724 C414.267528,126.144724 413.273021,127.140603 413.273021,128.357789 C413.273021,129.574975 414.267528,130.570854 415.483037,130.570854 C416.698546,130.570854 417.693053,129.574975 417.693053,128.357789 C417.693053,127.140603 416.698546,126.144724 415.483037,126.144724" id="Fill-85" fill="#6685CC"></path>
                    <path d="M416.035541,128.357789 C415.704039,128.357789 415.483037,128.579095 415.483037,128.911055 C415.483037,129.243015 415.704039,129.464322 416.035541,129.464322 C416.367044,129.464322 416.588045,129.243015 416.588045,128.911055 C416.588045,128.579095 416.367044,128.357789 416.035541,128.357789" id="Fill-87" fill="#FFFFFF"></path>
                    <path d="M156.911147,99.5879397 C155.695638,99.5879397 154.701131,100.583819 154.701131,101.801005 C154.701131,103.018191 155.695638,104.01407 156.911147,104.01407 C158.126656,104.01407 159.121163,103.018191 159.121163,101.801005 C159.121163,100.583819 158.126656,99.5879397 156.911147,99.5879397" id="Fill-89" fill="#6685CC"></path>
                    <path d="M156.358643,100.694472 C156.027141,100.694472 155.806139,100.915779 155.806139,101.247739 C155.806139,101.579698 156.027141,101.801005 156.358643,101.801005 C156.690145,101.801005 156.911147,101.579698 156.911147,101.247739 C156.911147,100.915779 156.690145,100.694472 156.358643,100.694472" id="Fill-91" fill="#FFFFFF"></path>
                    <path d="M237.576737,64.1788945 L0,64.1788945 L9.17156704,61.3019095 C18.6746365,58.3142714 22.5421648,52.338995 38.3437803,60.4166834 L38.5647819,60.4166834 L38.5647819,60.4166834 C50.7198708,53.5561809 63.0959612,53.1135678 74.4775444,58.8675377 L77.6820679,59.5314573 L88.1796446,59.420804 C96.0252019,37.6221106 115.694346,29.8763819 138.568013,29.8763819 C160.999677,29.8763819 180.226817,36.8475377 188.514378,57.8716583 L193.044911,57.761005 C206.415509,54.7733668 220.338611,56.2118593 232.935703,61.9658291 L237.576737,64.1788945 Z" id="Fill-104" fill="#FEF9EE"></path>
                    <path d="M684,64.1788945 L446.423263,64.1788945 L455.59483,61.3019095 C465.0979,58.3142714 468.965428,52.338995 484.767044,60.4166834 L484.988045,60.4166834 L484.988045,60.4166834 C497.143134,53.5561809 509.519225,53.1135678 520.900808,58.8675377 L524.105331,59.5314573 L534.602908,59.420804 C542.448465,37.6221106 562.117609,29.8763819 584.991276,29.8763819 C607.42294,29.8763819 626.650081,36.8475377 634.937641,57.8716583 L639.468174,57.761005 C652.838772,54.7733668 666.761874,56.2118593 679.358966,61.9658291 L684,64.1788945 Z" id="Fill-104-Copy" fill="#FEF9EE"></path>
                    <path d="M190.061389,123.931658 L334.817447,123.931658 L329.292407,122.271859 C323.546365,120.501407 321.225848,117.071156 311.501777,121.718593 L311.391276,121.718593 C303.987722,117.735075 296.473667,117.403116 289.512116,120.833367 L287.523102,121.27598 L281.114055,121.165327 C276.252019,108.440201 264.317932,104.01407 250.39483,104.01407 C236.803231,104.01407 224.979645,108.108241 220.007108,120.280101 L217.244588,120.280101 C209.067528,118.509648 200.558966,119.394874 192.93441,122.714472 L190.061389,123.931658 Z" id="Fill-106" fill="#FEF9EE"></path>
                    <path d="M110.500808,162.660302 L213.266559,162.660302 L209.28853,161.443116 C205.2,160.22593 203.542488,157.680905 196.691438,161.111156 L196.580937,161.111156 C191.276898,158.234171 185.972859,158.012864 181.000323,160.447236 L179.563813,160.779196 L175.033279,160.668543 C171.607754,151.484322 163.099192,148.275377 153.15412,148.275377 C143.430048,148.275377 135.142488,151.263015 131.606462,160.004623 L129.617447,160.004623 C123.871405,158.787437 117.793861,159.340704 112.379321,161.775075 L110.500808,162.660302 Z" id="Fill-108" fill="#FEF9EE"></path>
                </g>
                <g id="Group-110-Copy" transform="translate(0.000000, 231.602010)">
                    <path d="M243.654281,58.6462312 C242.10727,58.6462312 240.891761,59.8634171 240.891761,61.4125628 C240.891761,62.9617085 242.10727,64.1788945 243.654281,64.1788945 C245.201292,64.1788945 246.416801,62.9617085 246.416801,61.4125628 C246.416801,59.8634171 245.201292,58.6462312 243.654281,58.6462312" id="Path" fill="#6685CC"></path>
                    <path d="M244.206785,59.7527638 C243.54378,59.7527638 243.101777,60.5273367 243.101777,61.4125628 C243.101777,62.2977889 243.54378,63.0723618 244.206785,63.0723618 C244.86979,63.0723618 245.311793,62.2977889 245.311793,61.4125628 C245.311793,60.5273367 244.86979,59.7527638 244.206785,59.7527638" id="Path" fill="#FFFFFF"></path>
                    <path d="M283.434572,76.3507538 C281.887561,76.3507538 280.672052,77.5679397 280.672052,79.1170854 C280.672052,80.6662312 281.887561,81.8834171 283.434572,81.8834171 C284.981583,81.8834171 286.197092,80.6662312 286.197092,79.1170854 C286.197092,77.5679397 284.981583,76.3507538 283.434572,76.3507538" id="Path" fill="#6685CC"></path>
                    <path d="M283.987076,77.4572864 C283.324071,77.4572864 282.882068,78.2318593 282.882068,79.1170854 C282.882068,80.0023116 283.324071,80.7768844 283.987076,80.7768844 C284.650081,80.7768844 285.092084,80.0023116 285.092084,79.1170854 C285.092084,78.2318593 284.650081,77.4572864 283.987076,77.4572864" id="Path" fill="#FFFFFF"></path>
                    <path d="M233.709208,104.01407 C232.162197,104.01407 230.946688,105.231256 230.946688,106.780402 C230.946688,108.329548 232.162197,109.546734 233.709208,109.546734 C235.25622,109.546734 236.471729,108.329548 236.471729,106.780402 C236.471729,105.231256 235.25622,104.01407 233.709208,104.01407" id="Path" fill="#6685CC"></path>
                    <path d="M233.156704,105.120603 C232.4937,105.120603 232.051696,105.895176 232.051696,106.780402 C232.051696,107.665628 232.4937,108.440201 233.156704,108.440201 C233.819709,108.440201 234.261712,107.665628 234.261712,106.780402 C234.261712,105.895176 233.819709,105.120603 233.156704,105.120603" id="Path" fill="#FFFFFF"></path>
                    <path d="M295.037157,0 C293.821648,0 292.827141,0.995879397 292.827141,2.21306533 C292.827141,3.43025126 293.821648,4.42613065 295.037157,4.42613065 C296.252666,4.42613065 297.247173,3.43025126 297.247173,2.21306533 C297.247173,0.995879397 296.252666,0 295.037157,0" id="Path" fill="#6685CC"></path>
                    <path d="M295.589661,1.10653266 C295.258158,1.10653266 295.037157,1.3278392 295.037157,1.65979899 C295.037157,1.99175879 295.258158,2.21306533 295.589661,2.21306533 C295.921163,2.21306533 296.142165,1.99175879 296.142165,1.65979899 C296.142165,1.3278392 295.921163,1.10653266 295.589661,1.10653266" id="Path" fill="#FFFFFF"></path>
                    <path d="M247.521809,96.2683417 C246.3063,96.2683417 245.311793,97.2642211 245.311793,98.481407 C245.311793,99.698593 246.3063,100.694472 247.521809,100.694472 C248.737318,100.694472 249.731826,99.698593 249.731826,98.481407 C249.731826,97.2642211 248.737318,96.2683417 247.521809,96.2683417" id="Path" fill="#6685CC"></path>
                    <path d="M248.074313,98.481407 C247.742811,98.481407 247.521809,98.7027136 247.521809,99.0346734 C247.521809,99.3666332 247.742811,99.5879397 248.074313,99.5879397 C248.405816,99.5879397 248.626817,99.3666332 248.626817,99.0346734 C248.626817,98.7027136 248.405816,98.481407 248.074313,98.481407" id="Path" fill="#FFFFFF"></path>
                    <path d="M213.266559,34.3025126 C212.05105,34.3025126 211.056543,35.298392 211.056543,36.5155779 C211.056543,37.7327638 212.05105,38.7286432 213.266559,38.7286432 C214.482068,38.7286432 215.476575,37.7327638 215.476575,36.5155779 C215.476575,35.298392 214.482068,34.3025126 213.266559,34.3025126" id="Path" fill="#6685CC"></path>
                    <path d="M213.819063,36.5155779 C213.487561,36.5155779 213.266559,36.7368844 213.266559,37.0688442 C213.266559,37.400804 213.487561,37.6221106 213.819063,37.6221106 C214.150565,37.6221106 214.371567,37.400804 214.371567,37.0688442 C214.371567,36.7368844 214.150565,36.5155779 213.819063,36.5155779" id="Path" fill="#FFFFFF"></path>
                    <path d="M477.915994,58.6462312 C476.368982,58.6462312 475.153473,59.8634171 475.153473,61.4125628 C475.153473,62.9617085 476.368982,64.1788945 477.915994,64.1788945 C479.463005,64.1788945 480.678514,62.9617085 480.678514,61.4125628 C480.678514,59.8634171 479.463005,58.6462312 477.915994,58.6462312" id="Path" fill="#6685CC"></path>
                    <path d="M477.363489,59.7527638 C476.700485,59.7527638 476.258481,60.5273367 476.258481,61.4125628 C476.258481,62.2977889 476.700485,63.0723618 477.363489,63.0723618 C478.026494,63.0723618 478.468498,62.2977889 478.468498,61.4125628 C478.468498,60.5273367 478.026494,59.7527638 477.363489,59.7527638" id="Path" fill="#FFFFFF"></path>
                    <path d="M425.980614,75.2442211 C424.433603,75.2442211 423.218094,76.461407 423.218094,78.0105528 C423.218094,79.5596985 424.433603,80.7768844 425.980614,80.7768844 C427.527625,80.7768844 428.743134,79.5596985 428.743134,78.0105528 C428.743134,76.461407 427.527625,75.2442211 425.980614,75.2442211" id="Path" fill="#6685CC"></path>
                    <path d="M426.533118,76.3507538 C425.317609,76.3507538 424.323102,77.3466332 424.323102,78.5638191 C424.323102,79.781005 425.317609,80.7768844 426.533118,80.7768844 C427.748627,80.7768844 428.743134,79.781005 428.743134,78.5638191 C428.743134,77.3466332 427.748627,76.3507538 426.533118,76.3507538" id="Path" fill="#FFFFFF"></path>
                    <path d="M396.145396,15.4914573 C394.598384,15.4914573 393.382876,16.7086432 393.382876,18.2577889 C393.382876,19.8069347 394.598384,21.0241206 396.145396,21.0241206 C397.692407,21.0241206 398.907916,19.8069347 398.907916,18.2577889 C398.907916,16.7086432 397.692407,15.4914573 396.145396,15.4914573" id="Path" fill="#6685CC"></path>
                    <path d="M395.592892,16.5979899 C394.929887,16.5979899 394.487884,17.3725628 394.487884,18.2577889 C394.487884,19.1430151 394.929887,19.9175879 395.592892,19.9175879 C396.255897,19.9175879 396.6979,19.1430151 396.6979,18.2577889 C396.6979,17.3725628 396.255897,16.5979899 395.592892,16.5979899" id="Path" fill="#FFFFFF"></path>
                    <path d="M454.710824,119.505528 C453.163813,119.505528 451.948304,120.722714 451.948304,122.271859 C451.948304,123.821005 453.163813,125.038191 454.710824,125.038191 C456.257835,125.038191 457.473344,123.821005 457.473344,122.271859 C457.473344,120.722714 456.257835,119.505528 454.710824,119.505528" id="Path" fill="#6685CC"></path>
                    <path d="M454.15832,120.61206 C453.495315,120.61206 453.053312,121.386633 453.053312,122.271859 C453.053312,123.157085 453.495315,123.931658 454.15832,123.931658 C454.821325,123.931658 455.263328,123.157085 455.263328,122.271859 C455.263328,121.386633 454.821325,120.61206 454.15832,120.61206" id="Path" fill="#FFFFFF"></path>
                    <path d="M170.723748,27.6633166 C169.176737,27.6633166 167.961228,28.8805025 167.961228,30.4296482 C167.961228,31.978794 169.176737,33.1959799 170.723748,33.1959799 C172.270759,33.1959799 173.486268,31.978794 173.486268,30.4296482 C173.486268,28.8805025 172.270759,27.6633166 170.723748,27.6633166" id="Path" fill="#6685CC"></path>
                    <path d="M171.276252,28.7698492 C170.613247,28.7698492 170.171244,29.5444221 170.171244,30.4296482 C170.171244,31.3148744 170.613247,32.0894472 171.276252,32.0894472 C171.939257,32.0894472 172.38126,31.3148744 172.38126,30.4296482 C172.38126,29.5444221 171.939257,28.7698492 171.276252,28.7698492" id="Path" fill="#FFFFFF"></path>
                    <path d="M509.408724,0 C508.193215,0 507.198708,0.995879397 507.198708,2.21306533 C507.198708,3.43025126 508.193215,4.42613065 509.408724,4.42613065 C510.624233,4.42613065 511.61874,3.43025126 511.61874,2.21306533 C511.61874,0.995879397 510.624233,0 509.408724,0" id="Path" fill="#6685CC"></path>
                    <path d="M507.751212,3.31959799 C507.419709,3.31959799 507.198708,3.54090452 507.198708,3.87286432 C507.198708,4.20482412 507.419709,4.42613065 507.751212,4.42613065 C508.082714,4.42613065 508.303716,4.20482412 508.303716,3.87286432 C508.303716,3.54090452 508.082714,3.31959799 507.751212,3.31959799" id="Path" fill="#FFFFFF"></path>
                    <path d="M544.216478,105.120603 C542.669467,105.120603 541.453958,106.337789 541.453958,107.886935 C541.453958,109.43608 542.669467,110.653266 544.216478,110.653266 C545.763489,110.653266 546.978998,109.43608 546.978998,107.886935 C546.978998,106.337789 545.763489,105.120603 544.216478,105.120603" id="Path" fill="#6685CC"></path>
                    <path d="M543.663974,106.227136 C543.000969,106.227136 542.558966,107.001709 542.558966,107.886935 C542.558966,108.772161 543.000969,109.546734 543.663974,109.546734 C544.326979,109.546734 544.768982,108.772161 544.768982,107.886935 C544.768982,107.001709 544.326979,106.227136 543.663974,106.227136" id="Path" fill="#FFFFFF"></path>
                    <path d="M253.04685,123.931658 C251.168336,123.931658 249.731826,125.702111 249.731826,127.804523 C249.731826,129.906935 251.168336,131.677387 253.04685,131.677387 C254.925363,131.677387 256.361874,129.906935 256.361874,127.804523 C256.361874,125.702111 254.925363,123.931658 253.04685,123.931658" id="Path" fill="#6685CC"></path>
                    <path d="M253.04685,125.038191 C251.831341,125.038191 250.836834,126.03407 250.836834,127.251256 C250.836834,128.468442 251.831341,129.464322 253.04685,129.464322 C254.262359,129.464322 255.256866,128.468442 255.256866,127.251256 C255.256866,126.03407 254.262359,125.038191 253.04685,125.038191" id="Path" fill="#FFFFFF"></path>
                    <path d="M469.075929,89.6291457 C467.528918,89.6291457 466.313409,90.8463317 466.313409,92.3954774 C466.313409,93.9446231 467.528918,95.161809 469.075929,95.161809 C470.62294,95.161809 471.838449,93.9446231 471.838449,92.3954774 C471.838449,90.8463317 470.62294,89.6291457 469.075929,89.6291457" id="Path" fill="#6685CC"></path>
                    <path d="M469.628433,90.7356784 C468.965428,90.7356784 468.523425,91.5102513 468.523425,92.3954774 C468.523425,93.2807035 468.965428,94.0552764 469.628433,94.0552764 C470.291438,94.0552764 470.733441,93.2807035 470.733441,92.3954774 C470.733441,91.5102513 470.291438,90.7356784 469.628433,90.7356784" id="Path" fill="#FFFFFF"></path>
                    <path d="M412.168013,87.4160804 C410.952504,87.4160804 409.957997,88.4119598 409.957997,89.6291457 C409.957997,90.8463317 410.952504,91.8422111 412.168013,91.8422111 C413.383522,91.8422111 414.378029,90.8463317 414.378029,89.6291457 C414.378029,88.4119598 413.383522,87.4160804 412.168013,87.4160804" id="Path" fill="#6685CC"></path>
                    <path d="M411.615509,89.6291457 C411.284006,89.6291457 411.063005,89.8504523 411.063005,90.1824121 C411.063005,90.5143719 411.284006,90.7356784 411.615509,90.7356784 C411.947011,90.7356784 412.168013,90.5143719 412.168013,90.1824121 C412.168013,89.8504523 411.947011,89.6291457 411.615509,89.6291457" id="Path" fill="#FFFFFF"></path>
                    <path d="M433.163166,140.529648 C431.947658,140.529648 430.95315,141.525528 430.95315,142.742714 C430.95315,143.959899 431.947658,144.955779 433.163166,144.955779 C434.378675,144.955779 435.373183,143.959899 435.373183,142.742714 C435.373183,141.525528 434.378675,140.529648 433.163166,140.529648" id="Path" fill="#6685CC"></path>
                    <path d="M433.71567,142.742714 C433.384168,142.742714 433.163166,142.96402 433.163166,143.29598 C433.163166,143.62794 433.384168,143.849246 433.71567,143.849246 C434.047173,143.849246 434.268174,143.62794 434.268174,143.29598 C434.268174,142.96402 434.047173,142.742714 433.71567,142.742714" id="Path" fill="#FFFFFF"></path>
                    <path d="M415.483037,126.144724 C414.267528,126.144724 413.273021,127.140603 413.273021,128.357789 C413.273021,129.574975 414.267528,130.570854 415.483037,130.570854 C416.698546,130.570854 417.693053,129.574975 417.693053,128.357789 C417.693053,127.140603 416.698546,126.144724 415.483037,126.144724" id="Path" fill="#6685CC"></path>
                    <path d="M416.035541,128.357789 C415.704039,128.357789 415.483037,128.579095 415.483037,128.911055 C415.483037,129.243015 415.704039,129.464322 416.035541,129.464322 C416.367044,129.464322 416.588045,129.243015 416.588045,128.911055 C416.588045,128.579095 416.367044,128.357789 416.035541,128.357789" id="Path" fill="#FFFFFF"></path>
                    <path d="M156.911147,99.5879397 C155.695638,99.5879397 154.701131,100.583819 154.701131,101.801005 C154.701131,103.018191 155.695638,104.01407 156.911147,104.01407 C158.126656,104.01407 159.121163,103.018191 159.121163,101.801005 C159.121163,100.583819 158.126656,99.5879397 156.911147,99.5879397" id="Path" fill="#6685CC"></path>
                    <path d="M156.358643,100.694472 C156.027141,100.694472 155.806139,100.915779 155.806139,101.247739 C155.806139,101.579698 156.027141,101.801005 156.358643,101.801005 C156.690145,101.801005 156.911147,101.579698 156.911147,101.247739 C156.911147,100.915779 156.690145,100.694472 156.358643,100.694472" id="Path" fill="#FFFFFF"></path>
                    <path d="M237.576737,64.1788945 L0,64.1788945 L9.17156704,61.3019095 C18.6746365,58.3142714 22.5421648,52.338995 38.3437803,60.4166834 L38.5647819,60.4166834 L38.5647819,60.4166834 C50.7198708,53.5561809 63.0959612,53.1135678 74.4775444,58.8675377 L77.6820679,59.5314573 L88.1796446,59.420804 C96.0252019,37.6221106 115.694346,29.8763819 138.568013,29.8763819 C160.999677,29.8763819 180.226817,36.8475377 188.514378,57.8716583 L193.044911,57.761005 C206.415509,54.7733668 220.338611,56.2118593 232.935703,61.9658291 L237.576737,64.1788945 Z" id="Path" fill="#FEF9EE"></path>
                    <path d="M190.061389,123.931658 L334.817447,123.931658 L329.292407,122.271859 C323.546365,120.501407 321.225848,117.071156 311.501777,121.718593 L311.391276,121.718593 C303.987722,117.735075 296.473667,117.403116 289.512116,120.833367 L287.523102,121.27598 L281.114055,121.165327 C276.252019,108.440201 264.317932,104.01407 250.39483,104.01407 C236.803231,104.01407 224.979645,108.108241 220.007108,120.280101 L217.244588,120.280101 C209.067528,118.509648 200.558966,119.394874 192.93441,122.714472 L190.061389,123.931658 Z" id="Path" fill="#FEF9EE"></path>
                    <path d="M110.500808,162.660302 L213.266559,162.660302 L209.28853,161.443116 C205.2,160.22593 203.542488,157.680905 196.691438,161.111156 L196.580937,161.111156 C191.276898,158.234171 185.972859,158.012864 181.000323,160.447236 L179.563813,160.779196 L175.033279,160.668543 C171.607754,151.484322 163.099192,148.275377 153.15412,148.275377 C143.430048,148.275377 135.142488,151.263015 131.606462,160.004623 L129.617447,160.004623 C123.871405,158.787437 117.793861,159.340704 112.379321,161.775075 L110.500808,162.660302 Z" id="Path" fill="#FEF9EE"></path>
                </g>
                <g id="Group-110-Copy-2" transform="translate(0.000000, 419.712563)">
                    <path d="M243.654281,58.6462312 C242.10727,58.6462312 240.891761,59.8634171 240.891761,61.4125628 C240.891761,62.9617085 242.10727,64.1788945 243.654281,64.1788945 C245.201292,64.1788945 246.416801,62.9617085 246.416801,61.4125628 C246.416801,59.8634171 245.201292,58.6462312 243.654281,58.6462312" id="Path" fill="#6685CC"></path>
                    <path d="M244.206785,59.7527638 C243.54378,59.7527638 243.101777,60.5273367 243.101777,61.4125628 C243.101777,62.2977889 243.54378,63.0723618 244.206785,63.0723618 C244.86979,63.0723618 245.311793,62.2977889 245.311793,61.4125628 C245.311793,60.5273367 244.86979,59.7527638 244.206785,59.7527638" id="Path" fill="#FFFFFF"></path>
                    <path d="M283.434572,76.3507538 C281.887561,76.3507538 280.672052,77.5679397 280.672052,79.1170854 C280.672052,80.6662312 281.887561,81.8834171 283.434572,81.8834171 C284.981583,81.8834171 286.197092,80.6662312 286.197092,79.1170854 C286.197092,77.5679397 284.981583,76.3507538 283.434572,76.3507538" id="Path" fill="#6685CC"></path>
                    <path d="M283.987076,77.4572864 C283.324071,77.4572864 282.882068,78.2318593 282.882068,79.1170854 C282.882068,80.0023116 283.324071,80.7768844 283.987076,80.7768844 C284.650081,80.7768844 285.092084,80.0023116 285.092084,79.1170854 C285.092084,78.2318593 284.650081,77.4572864 283.987076,77.4572864" id="Path" fill="#FFFFFF"></path>
                    <path d="M233.709208,104.01407 C232.162197,104.01407 230.946688,105.231256 230.946688,106.780402 C230.946688,108.329548 232.162197,109.546734 233.709208,109.546734 C235.25622,109.546734 236.471729,108.329548 236.471729,106.780402 C236.471729,105.231256 235.25622,104.01407 233.709208,104.01407" id="Path" fill="#6685CC"></path>
                    <path d="M233.156704,105.120603 C232.4937,105.120603 232.051696,105.895176 232.051696,106.780402 C232.051696,107.665628 232.4937,108.440201 233.156704,108.440201 C233.819709,108.440201 234.261712,107.665628 234.261712,106.780402 C234.261712,105.895176 233.819709,105.120603 233.156704,105.120603" id="Path" fill="#FFFFFF"></path>
                    <path d="M295.037157,0 C293.821648,0 292.827141,0.995879397 292.827141,2.21306533 C292.827141,3.43025126 293.821648,4.42613065 295.037157,4.42613065 C296.252666,4.42613065 297.247173,3.43025126 297.247173,2.21306533 C297.247173,0.995879397 296.252666,0 295.037157,0" id="Path" fill="#6685CC"></path>
                    <path d="M295.589661,1.10653266 C295.258158,1.10653266 295.037157,1.3278392 295.037157,1.65979899 C295.037157,1.99175879 295.258158,2.21306533 295.589661,2.21306533 C295.921163,2.21306533 296.142165,1.99175879 296.142165,1.65979899 C296.142165,1.3278392 295.921163,1.10653266 295.589661,1.10653266" id="Path" fill="#FFFFFF"></path>
                    <path d="M247.521809,96.2683417 C246.3063,96.2683417 245.311793,97.2642211 245.311793,98.481407 C245.311793,99.698593 246.3063,100.694472 247.521809,100.694472 C248.737318,100.694472 249.731826,99.698593 249.731826,98.481407 C249.731826,97.2642211 248.737318,96.2683417 247.521809,96.2683417" id="Path" fill="#6685CC"></path>
                    <path d="M248.074313,98.481407 C247.742811,98.481407 247.521809,98.7027136 247.521809,99.0346734 C247.521809,99.3666332 247.742811,99.5879397 248.074313,99.5879397 C248.405816,99.5879397 248.626817,99.3666332 248.626817,99.0346734 C248.626817,98.7027136 248.405816,98.481407 248.074313,98.481407" id="Path" fill="#FFFFFF"></path>
                    <path d="M213.266559,34.3025126 C212.05105,34.3025126 211.056543,35.298392 211.056543,36.5155779 C211.056543,37.7327638 212.05105,38.7286432 213.266559,38.7286432 C214.482068,38.7286432 215.476575,37.7327638 215.476575,36.5155779 C215.476575,35.298392 214.482068,34.3025126 213.266559,34.3025126" id="Path" fill="#6685CC"></path>
                    <path d="M213.819063,36.5155779 C213.487561,36.5155779 213.266559,36.7368844 213.266559,37.0688442 C213.266559,37.400804 213.487561,37.6221106 213.819063,37.6221106 C214.150565,37.6221106 214.371567,37.400804 214.371567,37.0688442 C214.371567,36.7368844 214.150565,36.5155779 213.819063,36.5155779" id="Path" fill="#FFFFFF"></path>
                    <path d="M477.915994,52.0070352 C476.368982,52.0070352 475.153473,53.2242211 475.153473,54.7733668 C475.153473,56.3225126 476.368982,57.5396985 477.915994,57.5396985 C479.463005,57.5396985 480.678514,56.3225126 480.678514,54.7733668 C480.678514,53.2242211 479.463005,52.0070352 477.915994,52.0070352" id="Path" fill="#6685CC"></path>
                    <path d="M477.363489,53.1135678 C476.700485,53.1135678 476.258481,53.8881407 476.258481,54.7733668 C476.258481,55.658593 476.700485,56.4331658 477.363489,56.4331658 C478.026494,56.4331658 478.468498,55.658593 478.468498,54.7733668 C478.468498,53.8881407 478.026494,53.1135678 477.363489,53.1135678" id="Path" fill="#FFFFFF"></path>
                    <path d="M425.980614,75.2442211 C424.433603,75.2442211 423.218094,76.461407 423.218094,78.0105528 C423.218094,79.5596985 424.433603,80.7768844 425.980614,80.7768844 C427.527625,80.7768844 428.743134,79.5596985 428.743134,78.0105528 C428.743134,76.461407 427.527625,75.2442211 425.980614,75.2442211" id="Path" fill="#6685CC"></path>
                    <path d="M426.533118,76.3507538 C425.317609,76.3507538 424.323102,77.3466332 424.323102,78.5638191 C424.323102,79.781005 425.317609,80.7768844 426.533118,80.7768844 C427.748627,80.7768844 428.743134,79.781005 428.743134,78.5638191 C428.743134,77.3466332 427.748627,76.3507538 426.533118,76.3507538" id="Path" fill="#FFFFFF"></path>
                    <path d="M396.145396,15.4914573 C394.598384,15.4914573 393.382876,16.7086432 393.382876,18.2577889 C393.382876,19.8069347 394.598384,21.0241206 396.145396,21.0241206 C397.692407,21.0241206 398.907916,19.8069347 398.907916,18.2577889 C398.907916,16.7086432 397.692407,15.4914573 396.145396,15.4914573" id="Path" fill="#6685CC"></path>
                    <path d="M395.592892,16.5979899 C394.929887,16.5979899 394.487884,17.3725628 394.487884,18.2577889 C394.487884,19.1430151 394.929887,19.9175879 395.592892,19.9175879 C396.255897,19.9175879 396.6979,19.1430151 396.6979,18.2577889 C396.6979,17.3725628 396.255897,16.5979899 395.592892,16.5979899" id="Path" fill="#FFFFFF"></path>
                    <path d="M454.710824,119.505528 C453.163813,119.505528 451.948304,120.722714 451.948304,122.271859 C451.948304,123.821005 453.163813,125.038191 454.710824,125.038191 C456.257835,125.038191 457.473344,123.821005 457.473344,122.271859 C457.473344,120.722714 456.257835,119.505528 454.710824,119.505528" id="Path" fill="#6685CC"></path>
                    <path d="M454.15832,120.61206 C453.495315,120.61206 453.053312,121.386633 453.053312,122.271859 C453.053312,123.157085 453.495315,123.931658 454.15832,123.931658 C454.821325,123.931658 455.263328,123.157085 455.263328,122.271859 C455.263328,121.386633 454.821325,120.61206 454.15832,120.61206" id="Path" fill="#FFFFFF"></path>
                    <path d="M170.723748,27.6633166 C169.176737,27.6633166 167.961228,28.8805025 167.961228,30.4296482 C167.961228,31.978794 169.176737,33.1959799 170.723748,33.1959799 C172.270759,33.1959799 173.486268,31.978794 173.486268,30.4296482 C173.486268,28.8805025 172.270759,27.6633166 170.723748,27.6633166" id="Path" fill="#6685CC"></path>
                    <path d="M171.276252,28.7698492 C170.613247,28.7698492 170.171244,29.5444221 170.171244,30.4296482 C170.171244,31.3148744 170.613247,32.0894472 171.276252,32.0894472 C171.939257,32.0894472 172.38126,31.3148744 172.38126,30.4296482 C172.38126,29.5444221 171.939257,28.7698492 171.276252,28.7698492" id="Path" fill="#FFFFFF"></path>
                    <path d="M509.408724,0 C508.193215,0 507.198708,0.995879397 507.198708,2.21306533 C507.198708,3.43025126 508.193215,4.42613065 509.408724,4.42613065 C510.624233,4.42613065 511.61874,3.43025126 511.61874,2.21306533 C511.61874,0.995879397 510.624233,0 509.408724,0" id="Path" fill="#6685CC"></path>
                    <path d="M507.751212,3.31959799 C507.419709,3.31959799 507.198708,3.54090452 507.198708,3.87286432 C507.198708,4.20482412 507.419709,4.42613065 507.751212,4.42613065 C508.082714,4.42613065 508.303716,4.20482412 508.303716,3.87286432 C508.303716,3.54090452 508.082714,3.31959799 507.751212,3.31959799" id="Path" fill="#FFFFFF"></path>
                    <path d="M544.216478,105.120603 C542.669467,105.120603 541.453958,106.337789 541.453958,107.886935 C541.453958,109.43608 542.669467,110.653266 544.216478,110.653266 C545.763489,110.653266 546.978998,109.43608 546.978998,107.886935 C546.978998,106.337789 545.763489,105.120603 544.216478,105.120603" id="Path" fill="#6685CC"></path>
                    <path d="M543.663974,106.227136 C543.000969,106.227136 542.558966,107.001709 542.558966,107.886935 C542.558966,108.772161 543.000969,109.546734 543.663974,109.546734 C544.326979,109.546734 544.768982,108.772161 544.768982,107.886935 C544.768982,107.001709 544.326979,106.227136 543.663974,106.227136" id="Path" fill="#FFFFFF"></path>
                    <path d="M253.04685,123.931658 C251.168336,123.931658 249.731826,125.702111 249.731826,127.804523 C249.731826,129.906935 251.168336,131.677387 253.04685,131.677387 C254.925363,131.677387 256.361874,129.906935 256.361874,127.804523 C256.361874,125.702111 254.925363,123.931658 253.04685,123.931658" id="Path" fill="#6685CC"></path>
                    <path d="M253.04685,125.038191 C251.831341,125.038191 250.836834,126.03407 250.836834,127.251256 C250.836834,128.468442 251.831341,129.464322 253.04685,129.464322 C254.262359,129.464322 255.256866,128.468442 255.256866,127.251256 C255.256866,126.03407 254.262359,125.038191 253.04685,125.038191" id="Path" fill="#FFFFFF"></path>
                    <path d="M469.075929,89.6291457 C467.528918,89.6291457 466.313409,90.8463317 466.313409,92.3954774 C466.313409,93.9446231 467.528918,95.161809 469.075929,95.161809 C470.62294,95.161809 471.838449,93.9446231 471.838449,92.3954774 C471.838449,90.8463317 470.62294,89.6291457 469.075929,89.6291457" id="Path" fill="#6685CC"></path>
                    <path d="M469.628433,90.7356784 C468.965428,90.7356784 468.523425,91.5102513 468.523425,92.3954774 C468.523425,93.2807035 468.965428,94.0552764 469.628433,94.0552764 C470.291438,94.0552764 470.733441,93.2807035 470.733441,92.3954774 C470.733441,91.5102513 470.291438,90.7356784 469.628433,90.7356784" id="Path" fill="#FFFFFF"></path>
                    <path d="M412.168013,87.4160804 C410.952504,87.4160804 409.957997,88.4119598 409.957997,89.6291457 C409.957997,90.8463317 410.952504,91.8422111 412.168013,91.8422111 C413.383522,91.8422111 414.378029,90.8463317 414.378029,89.6291457 C414.378029,88.4119598 413.383522,87.4160804 412.168013,87.4160804" id="Path" fill="#6685CC"></path>
                    <path d="M411.615509,89.6291457 C411.284006,89.6291457 411.063005,89.8504523 411.063005,90.1824121 C411.063005,90.5143719 411.284006,90.7356784 411.615509,90.7356784 C411.947011,90.7356784 412.168013,90.5143719 412.168013,90.1824121 C412.168013,89.8504523 411.947011,89.6291457 411.615509,89.6291457" id="Path" fill="#FFFFFF"></path>
                    <path d="M433.163166,140.529648 C431.947658,140.529648 430.95315,141.525528 430.95315,142.742714 C430.95315,143.959899 431.947658,144.955779 433.163166,144.955779 C434.378675,144.955779 435.373183,143.959899 435.373183,142.742714 C435.373183,141.525528 434.378675,140.529648 433.163166,140.529648" id="Path" fill="#6685CC"></path>
                    <path d="M433.71567,142.742714 C433.384168,142.742714 433.163166,142.96402 433.163166,143.29598 C433.163166,143.62794 433.384168,143.849246 433.71567,143.849246 C434.047173,143.849246 434.268174,143.62794 434.268174,143.29598 C434.268174,142.96402 434.047173,142.742714 433.71567,142.742714" id="Path" fill="#FFFFFF"></path>
                    <path d="M415.483037,126.144724 C414.267528,126.144724 413.273021,127.140603 413.273021,128.357789 C413.273021,129.574975 414.267528,130.570854 415.483037,130.570854 C416.698546,130.570854 417.693053,129.574975 417.693053,128.357789 C417.693053,127.140603 416.698546,126.144724 415.483037,126.144724" id="Path" fill="#6685CC"></path>
                    <path d="M416.035541,128.357789 C415.704039,128.357789 415.483037,128.579095 415.483037,128.911055 C415.483037,129.243015 415.704039,129.464322 416.035541,129.464322 C416.367044,129.464322 416.588045,129.243015 416.588045,128.911055 C416.588045,128.579095 416.367044,128.357789 416.035541,128.357789" id="Path" fill="#FFFFFF"></path>
                    <path d="M156.911147,99.5879397 C155.695638,99.5879397 154.701131,100.583819 154.701131,101.801005 C154.701131,103.018191 155.695638,104.01407 156.911147,104.01407 C158.126656,104.01407 159.121163,103.018191 159.121163,101.801005 C159.121163,100.583819 158.126656,99.5879397 156.911147,99.5879397" id="Path" fill="#6685CC"></path>
                    <path d="M156.358643,100.694472 C156.027141,100.694472 155.806139,100.915779 155.806139,101.247739 C155.806139,101.579698 156.027141,101.801005 156.358643,101.801005 C156.690145,101.801005 156.911147,101.579698 156.911147,101.247739 C156.911147,100.915779 156.690145,100.694472 156.358643,100.694472" id="Path" fill="#FFFFFF"></path>
                    <path d="M237.576737,64.1788945 L0,64.1788945 L9.17156704,61.3019095 C18.6746365,58.3142714 22.5421648,52.338995 38.3437803,60.4166834 L38.5647819,60.4166834 L38.5647819,60.4166834 C50.7198708,53.5561809 63.0959612,53.1135678 74.4775444,58.8675377 L77.6820679,59.5314573 L88.1796446,59.420804 C96.0252019,37.6221106 115.694346,29.8763819 138.568013,29.8763819 C160.999677,29.8763819 180.226817,36.8475377 188.514378,57.8716583 L193.044911,57.761005 C206.415509,54.7733668 220.338611,56.2118593 232.935703,61.9658291 L237.576737,64.1788945 Z" id="Path" fill="#FEF9EE"></path>
                    <path d="M190.061389,123.931658 L334.817447,123.931658 L329.292407,122.271859 C323.546365,120.501407 321.225848,117.071156 311.501777,121.718593 L311.391276,121.718593 C303.987722,117.735075 296.473667,117.403116 289.512116,120.833367 L287.523102,121.27598 L281.114055,121.165327 C276.252019,108.440201 264.317932,104.01407 250.39483,104.01407 C236.803231,104.01407 224.979645,108.108241 220.007108,120.280101 L217.244588,120.280101 C209.067528,118.509648 200.558966,119.394874 192.93441,122.714472 L190.061389,123.931658 Z" id="Path" fill="#FEF9EE"></path>
                    <path d="M110.500808,162.660302 L213.266559,162.660302 L209.28853,161.443116 C205.2,160.22593 203.542488,157.680905 196.691438,161.111156 L196.580937,161.111156 C191.276898,158.234171 185.972859,158.012864 181.000323,160.447236 L179.563813,160.779196 L175.033279,160.668543 C171.607754,151.484322 163.099192,148.275377 153.15412,148.275377 C143.430048,148.275377 135.142488,151.263015 131.606462,160.004623 L129.617447,160.004623 C123.871405,158.787437 117.793861,159.340704 112.379321,161.775075 L110.500808,162.660302 Z" id="Path" fill="#FEF9EE"></path>
                </g>
                <g id="Group-110-Copy-3" transform="translate(0.000000, 607.823116)">
                    <path d="M243.654281,58.6462312 C242.10727,58.6462312 240.891761,59.8634171 240.891761,61.4125628 C240.891761,62.9617085 242.10727,64.1788945 243.654281,64.1788945 C245.201292,64.1788945 246.416801,62.9617085 246.416801,61.4125628 C246.416801,59.8634171 245.201292,58.6462312 243.654281,58.6462312" id="Path" fill="#6685CC"></path>
                    <path d="M244.206785,59.7527638 C243.54378,59.7527638 243.101777,60.5273367 243.101777,61.4125628 C243.101777,62.2977889 243.54378,63.0723618 244.206785,63.0723618 C244.86979,63.0723618 245.311793,62.2977889 245.311793,61.4125628 C245.311793,60.5273367 244.86979,59.7527638 244.206785,59.7527638" id="Path" fill="#FFFFFF"></path>
                    <path d="M283.434572,76.3507538 C281.887561,76.3507538 280.672052,77.5679397 280.672052,79.1170854 C280.672052,80.6662312 281.887561,81.8834171 283.434572,81.8834171 C284.981583,81.8834171 286.197092,80.6662312 286.197092,79.1170854 C286.197092,77.5679397 284.981583,76.3507538 283.434572,76.3507538" id="Path" fill="#6685CC"></path>
                    <path d="M283.987076,77.4572864 C283.324071,77.4572864 282.882068,78.2318593 282.882068,79.1170854 C282.882068,80.0023116 283.324071,80.7768844 283.987076,80.7768844 C284.650081,80.7768844 285.092084,80.0023116 285.092084,79.1170854 C285.092084,78.2318593 284.650081,77.4572864 283.987076,77.4572864" id="Path" fill="#FFFFFF"></path>
                    <path d="M233.709208,104.01407 C232.162197,104.01407 230.946688,105.231256 230.946688,106.780402 C230.946688,108.329548 232.162197,109.546734 233.709208,109.546734 C235.25622,109.546734 236.471729,108.329548 236.471729,106.780402 C236.471729,105.231256 235.25622,104.01407 233.709208,104.01407" id="Path" fill="#6685CC"></path>
                    <path d="M233.156704,105.120603 C232.4937,105.120603 232.051696,105.895176 232.051696,106.780402 C232.051696,107.665628 232.4937,108.440201 233.156704,108.440201 C233.819709,108.440201 234.261712,107.665628 234.261712,106.780402 C234.261712,105.895176 233.819709,105.120603 233.156704,105.120603" id="Path" fill="#FFFFFF"></path>
                    <path d="M295.037157,0 C293.821648,0 292.827141,0.995879397 292.827141,2.21306533 C292.827141,3.43025126 293.821648,4.42613065 295.037157,4.42613065 C296.252666,4.42613065 297.247173,3.43025126 297.247173,2.21306533 C297.247173,0.995879397 296.252666,0 295.037157,0" id="Path" fill="#6685CC"></path>
                    <path d="M295.589661,1.10653266 C295.258158,1.10653266 295.037157,1.3278392 295.037157,1.65979899 C295.037157,1.99175879 295.258158,2.21306533 295.589661,2.21306533 C295.921163,2.21306533 296.142165,1.99175879 296.142165,1.65979899 C296.142165,1.3278392 295.921163,1.10653266 295.589661,1.10653266" id="Path" fill="#FFFFFF"></path>
                    <path d="M247.521809,96.2683417 C246.3063,96.2683417 245.311793,97.2642211 245.311793,98.481407 C245.311793,99.698593 246.3063,100.694472 247.521809,100.694472 C248.737318,100.694472 249.731826,99.698593 249.731826,98.481407 C249.731826,97.2642211 248.737318,96.2683417 247.521809,96.2683417" id="Path" fill="#6685CC"></path>
                    <path d="M248.074313,98.481407 C247.742811,98.481407 247.521809,98.7027136 247.521809,99.0346734 C247.521809,99.3666332 247.742811,99.5879397 248.074313,99.5879397 C248.405816,99.5879397 248.626817,99.3666332 248.626817,99.0346734 C248.626817,98.7027136 248.405816,98.481407 248.074313,98.481407" id="Path" fill="#FFFFFF"></path>
                    <path d="M213.266559,34.3025126 C212.05105,34.3025126 211.056543,35.298392 211.056543,36.5155779 C211.056543,37.7327638 212.05105,38.7286432 213.266559,38.7286432 C214.482068,38.7286432 215.476575,37.7327638 215.476575,36.5155779 C215.476575,35.298392 214.482068,34.3025126 213.266559,34.3025126" id="Path" fill="#6685CC"></path>
                    <path d="M213.819063,36.5155779 C213.487561,36.5155779 213.266559,36.7368844 213.266559,37.0688442 C213.266559,37.400804 213.487561,37.6221106 213.819063,37.6221106 C214.150565,37.6221106 214.371567,37.400804 214.371567,37.0688442 C214.371567,36.7368844 214.150565,36.5155779 213.819063,36.5155779" id="Path" fill="#FFFFFF"></path>
                    <path d="M477.915994,52.0070352 C476.368982,52.0070352 475.153473,53.2242211 475.153473,54.7733668 C475.153473,56.3225126 476.368982,57.5396985 477.915994,57.5396985 C479.463005,57.5396985 480.678514,56.3225126 480.678514,54.7733668 C480.678514,53.2242211 479.463005,52.0070352 477.915994,52.0070352" id="Path" fill="#6685CC"></path>
                    <path d="M477.363489,53.1135678 C476.700485,53.1135678 476.258481,53.8881407 476.258481,54.7733668 C476.258481,55.658593 476.700485,56.4331658 477.363489,56.4331658 C478.026494,56.4331658 478.468498,55.658593 478.468498,54.7733668 C478.468498,53.8881407 478.026494,53.1135678 477.363489,53.1135678" id="Path" fill="#FFFFFF"></path>
                    <path d="M425.980614,75.2442211 C424.433603,75.2442211 423.218094,76.461407 423.218094,78.0105528 C423.218094,79.5596985 424.433603,80.7768844 425.980614,80.7768844 C427.527625,80.7768844 428.743134,79.5596985 428.743134,78.0105528 C428.743134,76.461407 427.527625,75.2442211 425.980614,75.2442211" id="Path" fill="#6685CC"></path>
                    <path d="M426.533118,76.3507538 C425.317609,76.3507538 424.323102,77.3466332 424.323102,78.5638191 C424.323102,79.781005 425.317609,80.7768844 426.533118,80.7768844 C427.748627,80.7768844 428.743134,79.781005 428.743134,78.5638191 C428.743134,77.3466332 427.748627,76.3507538 426.533118,76.3507538" id="Path" fill="#FFFFFF"></path>
                    <path d="M396.145396,15.4914573 C394.598384,15.4914573 393.382876,16.7086432 393.382876,18.2577889 C393.382876,19.8069347 394.598384,21.0241206 396.145396,21.0241206 C397.692407,21.0241206 398.907916,19.8069347 398.907916,18.2577889 C398.907916,16.7086432 397.692407,15.4914573 396.145396,15.4914573" id="Path" fill="#6685CC"></path>
                    <path d="M395.592892,16.5979899 C394.929887,16.5979899 394.487884,17.3725628 394.487884,18.2577889 C394.487884,19.1430151 394.929887,19.9175879 395.592892,19.9175879 C396.255897,19.9175879 396.6979,19.1430151 396.6979,18.2577889 C396.6979,17.3725628 396.255897,16.5979899 395.592892,16.5979899" id="Path" fill="#FFFFFF"></path>
                    <path d="M454.710824,119.505528 C453.163813,119.505528 451.948304,120.722714 451.948304,122.271859 C451.948304,123.821005 453.163813,125.038191 454.710824,125.038191 C456.257835,125.038191 457.473344,123.821005 457.473344,122.271859 C457.473344,120.722714 456.257835,119.505528 454.710824,119.505528" id="Path" fill="#6685CC"></path>
                    <path d="M454.15832,120.61206 C453.495315,120.61206 453.053312,121.386633 453.053312,122.271859 C453.053312,123.157085 453.495315,123.931658 454.15832,123.931658 C454.821325,123.931658 455.263328,123.157085 455.263328,122.271859 C455.263328,121.386633 454.821325,120.61206 454.15832,120.61206" id="Path" fill="#FFFFFF"></path>
                    <path d="M170.723748,27.6633166 C169.176737,27.6633166 167.961228,28.8805025 167.961228,30.4296482 C167.961228,31.978794 169.176737,33.1959799 170.723748,33.1959799 C172.270759,33.1959799 173.486268,31.978794 173.486268,30.4296482 C173.486268,28.8805025 172.270759,27.6633166 170.723748,27.6633166" id="Path" fill="#6685CC"></path>
                    <path d="M171.276252,28.7698492 C170.613247,28.7698492 170.171244,29.5444221 170.171244,30.4296482 C170.171244,31.3148744 170.613247,32.0894472 171.276252,32.0894472 C171.939257,32.0894472 172.38126,31.3148744 172.38126,30.4296482 C172.38126,29.5444221 171.939257,28.7698492 171.276252,28.7698492" id="Path" fill="#FFFFFF"></path>
                    <path d="M509.408724,0 C508.193215,0 507.198708,0.995879397 507.198708,2.21306533 C507.198708,3.43025126 508.193215,4.42613065 509.408724,4.42613065 C510.624233,4.42613065 511.61874,3.43025126 511.61874,2.21306533 C511.61874,0.995879397 510.624233,0 509.408724,0" id="Path" fill="#6685CC"></path>
                    <path d="M507.751212,3.31959799 C507.419709,3.31959799 507.198708,3.54090452 507.198708,3.87286432 C507.198708,4.20482412 507.419709,4.42613065 507.751212,4.42613065 C508.082714,4.42613065 508.303716,4.20482412 508.303716,3.87286432 C508.303716,3.54090452 508.082714,3.31959799 507.751212,3.31959799" id="Path" fill="#FFFFFF"></path>
                    <path d="M544.216478,105.120603 C542.669467,105.120603 541.453958,106.337789 541.453958,107.886935 C541.453958,109.43608 542.669467,110.653266 544.216478,110.653266 C545.763489,110.653266 546.978998,109.43608 546.978998,107.886935 C546.978998,106.337789 545.763489,105.120603 544.216478,105.120603" id="Path" fill="#6685CC"></path>
                    <path d="M543.663974,106.227136 C543.000969,106.227136 542.558966,107.001709 542.558966,107.886935 C542.558966,108.772161 543.000969,109.546734 543.663974,109.546734 C544.326979,109.546734 544.768982,108.772161 544.768982,107.886935 C544.768982,107.001709 544.326979,106.227136 543.663974,106.227136" id="Path" fill="#FFFFFF"></path>
                    <path d="M253.04685,123.931658 C251.168336,123.931658 249.731826,125.702111 249.731826,127.804523 C249.731826,129.906935 251.168336,131.677387 253.04685,131.677387 C254.925363,131.677387 256.361874,129.906935 256.361874,127.804523 C256.361874,125.702111 254.925363,123.931658 253.04685,123.931658" id="Path" fill="#6685CC"></path>
                    <path d="M253.04685,125.038191 C251.831341,125.038191 250.836834,126.03407 250.836834,127.251256 C250.836834,128.468442 251.831341,129.464322 253.04685,129.464322 C254.262359,129.464322 255.256866,128.468442 255.256866,127.251256 C255.256866,126.03407 254.262359,125.038191 253.04685,125.038191" id="Path" fill="#FFFFFF"></path>
                    <path d="M469.075929,89.6291457 C467.528918,89.6291457 466.313409,90.8463317 466.313409,92.3954774 C466.313409,93.9446231 467.528918,95.161809 469.075929,95.161809 C470.62294,95.161809 471.838449,93.9446231 471.838449,92.3954774 C471.838449,90.8463317 470.62294,89.6291457 469.075929,89.6291457" id="Path" fill="#6685CC"></path>
                    <path d="M469.628433,90.7356784 C468.965428,90.7356784 468.523425,91.5102513 468.523425,92.3954774 C468.523425,93.2807035 468.965428,94.0552764 469.628433,94.0552764 C470.291438,94.0552764 470.733441,93.2807035 470.733441,92.3954774 C470.733441,91.5102513 470.291438,90.7356784 469.628433,90.7356784" id="Path" fill="#FFFFFF"></path>
                    <path d="M412.168013,87.4160804 C410.952504,87.4160804 409.957997,88.4119598 409.957997,89.6291457 C409.957997,90.8463317 410.952504,91.8422111 412.168013,91.8422111 C413.383522,91.8422111 414.378029,90.8463317 414.378029,89.6291457 C414.378029,88.4119598 413.383522,87.4160804 412.168013,87.4160804" id="Path" fill="#6685CC"></path>
                    <path d="M411.615509,89.6291457 C411.284006,89.6291457 411.063005,89.8504523 411.063005,90.1824121 C411.063005,90.5143719 411.284006,90.7356784 411.615509,90.7356784 C411.947011,90.7356784 412.168013,90.5143719 412.168013,90.1824121 C412.168013,89.8504523 411.947011,89.6291457 411.615509,89.6291457" id="Path" fill="#FFFFFF"></path>
                    <path d="M433.163166,140.529648 C431.947658,140.529648 430.95315,141.525528 430.95315,142.742714 C430.95315,143.959899 431.947658,144.955779 433.163166,144.955779 C434.378675,144.955779 435.373183,143.959899 435.373183,142.742714 C435.373183,141.525528 434.378675,140.529648 433.163166,140.529648" id="Path" fill="#6685CC"></path>
                    <path d="M433.71567,142.742714 C433.384168,142.742714 433.163166,142.96402 433.163166,143.29598 C433.163166,143.62794 433.384168,143.849246 433.71567,143.849246 C434.047173,143.849246 434.268174,143.62794 434.268174,143.29598 C434.268174,142.96402 434.047173,142.742714 433.71567,142.742714" id="Path" fill="#FFFFFF"></path>
                    <path d="M415.483037,126.144724 C414.267528,126.144724 413.273021,127.140603 413.273021,128.357789 C413.273021,129.574975 414.267528,130.570854 415.483037,130.570854 C416.698546,130.570854 417.693053,129.574975 417.693053,128.357789 C417.693053,127.140603 416.698546,126.144724 415.483037,126.144724" id="Path" fill="#6685CC"></path>
                    <path d="M416.035541,128.357789 C415.704039,128.357789 415.483037,128.579095 415.483037,128.911055 C415.483037,129.243015 415.704039,129.464322 416.035541,129.464322 C416.367044,129.464322 416.588045,129.243015 416.588045,128.911055 C416.588045,128.579095 416.367044,128.357789 416.035541,128.357789" id="Path" fill="#FFFFFF"></path>
                    <path d="M156.911147,99.5879397 C155.695638,99.5879397 154.701131,100.583819 154.701131,101.801005 C154.701131,103.018191 155.695638,104.01407 156.911147,104.01407 C158.126656,104.01407 159.121163,103.018191 159.121163,101.801005 C159.121163,100.583819 158.126656,99.5879397 156.911147,99.5879397" id="Path" fill="#6685CC"></path>
                    <path d="M156.358643,100.694472 C156.027141,100.694472 155.806139,100.915779 155.806139,101.247739 C155.806139,101.579698 156.027141,101.801005 156.358643,101.801005 C156.690145,101.801005 156.911147,101.579698 156.911147,101.247739 C156.911147,100.915779 156.690145,100.694472 156.358643,100.694472" id="Path" fill="#FFFFFF"></path>
                    <path d="M237.576737,64.1788945 L0,64.1788945 L9.17156704,61.3019095 C18.6746365,58.3142714 22.5421648,52.338995 38.3437803,60.4166834 L38.5647819,60.4166834 L38.5647819,60.4166834 C50.7198708,53.5561809 63.0959612,53.1135678 74.4775444,58.8675377 L77.6820679,59.5314573 L88.1796446,59.420804 C96.0252019,37.6221106 115.694346,29.8763819 138.568013,29.8763819 C160.999677,29.8763819 180.226817,36.8475377 188.514378,57.8716583 L193.044911,57.761005 C206.415509,54.7733668 220.338611,56.2118593 232.935703,61.9658291 L237.576737,64.1788945 Z" id="Path" fill="#FEF9EE"></path>
                    <path d="M190.061389,123.931658 L334.817447,123.931658 L329.292407,122.271859 C323.546365,120.501407 321.225848,117.071156 311.501777,121.718593 L311.391276,121.718593 C303.987722,117.735075 296.473667,117.403116 289.512116,120.833367 L287.523102,121.27598 L281.114055,121.165327 C276.252019,108.440201 264.317932,104.01407 250.39483,104.01407 C236.803231,104.01407 224.979645,108.108241 220.007108,120.280101 L217.244588,120.280101 C209.067528,118.509648 200.558966,119.394874 192.93441,122.714472 L190.061389,123.931658 Z" id="Path" fill="#FEF9EE"></path>
                    <path d="M110.500808,162.660302 L213.266559,162.660302 L209.28853,161.443116 C205.2,160.22593 203.542488,157.680905 196.691438,161.111156 L196.580937,161.111156 C191.276898,158.234171 185.972859,158.012864 181.000323,160.447236 L179.563813,160.779196 L175.033279,160.668543 C171.607754,151.484322 163.099192,148.275377 153.15412,148.275377 C143.430048,148.275377 135.142488,151.263015 131.606462,160.004623 L129.617447,160.004623 C123.871405,158.787437 117.793861,159.340704 112.379321,161.775075 L110.500808,162.660302 Z" id="Path" fill="#FEF9EE"></path>
                </g>
                <g id="Group-110-Copy-4" transform="translate(0.000000, 795.933668)">
                    <path d="M243.654281,58.6462312 C242.10727,58.6462312 240.891761,59.8634171 240.891761,61.4125628 C240.891761,62.9617085 242.10727,64.1788945 243.654281,64.1788945 C245.201292,64.1788945 246.416801,62.9617085 246.416801,61.4125628 C246.416801,59.8634171 245.201292,58.6462312 243.654281,58.6462312" id="Path" fill="#6685CC"></path>
                    <path d="M244.206785,59.7527638 C243.54378,59.7527638 243.101777,60.5273367 243.101777,61.4125628 C243.101777,62.2977889 243.54378,63.0723618 244.206785,63.0723618 C244.86979,63.0723618 245.311793,62.2977889 245.311793,61.4125628 C245.311793,60.5273367 244.86979,59.7527638 244.206785,59.7527638" id="Path" fill="#FFFFFF"></path>
                    <path d="M283.434572,76.3507538 C281.887561,76.3507538 280.672052,77.5679397 280.672052,79.1170854 C280.672052,80.6662312 281.887561,81.8834171 283.434572,81.8834171 C284.981583,81.8834171 286.197092,80.6662312 286.197092,79.1170854 C286.197092,77.5679397 284.981583,76.3507538 283.434572,76.3507538" id="Path" fill="#6685CC"></path>
                    <path d="M283.987076,77.4572864 C283.324071,77.4572864 282.882068,78.2318593 282.882068,79.1170854 C282.882068,80.0023116 283.324071,80.7768844 283.987076,80.7768844 C284.650081,80.7768844 285.092084,80.0023116 285.092084,79.1170854 C285.092084,78.2318593 284.650081,77.4572864 283.987076,77.4572864" id="Path" fill="#FFFFFF"></path>
                    <path d="M233.709208,104.01407 C232.162197,104.01407 230.946688,105.231256 230.946688,106.780402 C230.946688,108.329548 232.162197,109.546734 233.709208,109.546734 C235.25622,109.546734 236.471729,108.329548 236.471729,106.780402 C236.471729,105.231256 235.25622,104.01407 233.709208,104.01407" id="Path" fill="#6685CC"></path>
                    <path d="M233.156704,105.120603 C232.4937,105.120603 232.051696,105.895176 232.051696,106.780402 C232.051696,107.665628 232.4937,108.440201 233.156704,108.440201 C233.819709,108.440201 234.261712,107.665628 234.261712,106.780402 C234.261712,105.895176 233.819709,105.120603 233.156704,105.120603" id="Path" fill="#FFFFFF"></path>
                    <path d="M295.037157,0 C293.821648,0 292.827141,0.995879397 292.827141,2.21306533 C292.827141,3.43025126 293.821648,4.42613065 295.037157,4.42613065 C296.252666,4.42613065 297.247173,3.43025126 297.247173,2.21306533 C297.247173,0.995879397 296.252666,0 295.037157,0" id="Path" fill="#6685CC"></path>
                    <path d="M295.589661,1.10653266 C295.258158,1.10653266 295.037157,1.3278392 295.037157,1.65979899 C295.037157,1.99175879 295.258158,2.21306533 295.589661,2.21306533 C295.921163,2.21306533 296.142165,1.99175879 296.142165,1.65979899 C296.142165,1.3278392 295.921163,1.10653266 295.589661,1.10653266" id="Path" fill="#FFFFFF"></path>
                    <path d="M247.521809,96.2683417 C246.3063,96.2683417 245.311793,97.2642211 245.311793,98.481407 C245.311793,99.698593 246.3063,100.694472 247.521809,100.694472 C248.737318,100.694472 249.731826,99.698593 249.731826,98.481407 C249.731826,97.2642211 248.737318,96.2683417 247.521809,96.2683417" id="Path" fill="#6685CC"></path>
                    <path d="M248.074313,98.481407 C247.742811,98.481407 247.521809,98.7027136 247.521809,99.0346734 C247.521809,99.3666332 247.742811,99.5879397 248.074313,99.5879397 C248.405816,99.5879397 248.626817,99.3666332 248.626817,99.0346734 C248.626817,98.7027136 248.405816,98.481407 248.074313,98.481407" id="Path" fill="#FFFFFF"></path>
                    <path d="M213.266559,34.3025126 C212.05105,34.3025126 211.056543,35.298392 211.056543,36.5155779 C211.056543,37.7327638 212.05105,38.7286432 213.266559,38.7286432 C214.482068,38.7286432 215.476575,37.7327638 215.476575,36.5155779 C215.476575,35.298392 214.482068,34.3025126 213.266559,34.3025126" id="Path" fill="#6685CC"></path>
                    <path d="M213.819063,36.5155779 C213.487561,36.5155779 213.266559,36.7368844 213.266559,37.0688442 C213.266559,37.400804 213.487561,37.6221106 213.819063,37.6221106 C214.150565,37.6221106 214.371567,37.400804 214.371567,37.0688442 C214.371567,36.7368844 214.150565,36.5155779 213.819063,36.5155779" id="Path" fill="#FFFFFF"></path>
                    <path d="M477.915994,52.0070352 C476.368982,52.0070352 475.153473,53.2242211 475.153473,54.7733668 C475.153473,56.3225126 476.368982,57.5396985 477.915994,57.5396985 C479.463005,57.5396985 480.678514,56.3225126 480.678514,54.7733668 C480.678514,53.2242211 479.463005,52.0070352 477.915994,52.0070352" id="Path" fill="#6685CC"></path>
                    <path d="M477.363489,53.1135678 C476.700485,53.1135678 476.258481,53.8881407 476.258481,54.7733668 C476.258481,55.658593 476.700485,56.4331658 477.363489,56.4331658 C478.026494,56.4331658 478.468498,55.658593 478.468498,54.7733668 C478.468498,53.8881407 478.026494,53.1135678 477.363489,53.1135678" id="Path" fill="#FFFFFF"></path>
                    <path d="M425.980614,75.2442211 C424.433603,75.2442211 423.218094,76.461407 423.218094,78.0105528 C423.218094,79.5596985 424.433603,80.7768844 425.980614,80.7768844 C427.527625,80.7768844 428.743134,79.5596985 428.743134,78.0105528 C428.743134,76.461407 427.527625,75.2442211 425.980614,75.2442211" id="Path" fill="#6685CC"></path>
                    <path d="M426.533118,76.3507538 C425.317609,76.3507538 424.323102,77.3466332 424.323102,78.5638191 C424.323102,79.781005 425.317609,80.7768844 426.533118,80.7768844 C427.748627,80.7768844 428.743134,79.781005 428.743134,78.5638191 C428.743134,77.3466332 427.748627,76.3507538 426.533118,76.3507538" id="Path" fill="#FFFFFF"></path>
                    <path d="M396.145396,15.4914573 C394.598384,15.4914573 393.382876,16.7086432 393.382876,18.2577889 C393.382876,19.8069347 394.598384,21.0241206 396.145396,21.0241206 C397.692407,21.0241206 398.907916,19.8069347 398.907916,18.2577889 C398.907916,16.7086432 397.692407,15.4914573 396.145396,15.4914573" id="Path" fill="#6685CC"></path>
                    <path d="M395.592892,16.5979899 C394.929887,16.5979899 394.487884,17.3725628 394.487884,18.2577889 C394.487884,19.1430151 394.929887,19.9175879 395.592892,19.9175879 C396.255897,19.9175879 396.6979,19.1430151 396.6979,18.2577889 C396.6979,17.3725628 396.255897,16.5979899 395.592892,16.5979899" id="Path" fill="#FFFFFF"></path>
                    <path d="M454.710824,119.505528 C453.163813,119.505528 451.948304,120.722714 451.948304,122.271859 C451.948304,123.821005 453.163813,125.038191 454.710824,125.038191 C456.257835,125.038191 457.473344,123.821005 457.473344,122.271859 C457.473344,120.722714 456.257835,119.505528 454.710824,119.505528" id="Path" fill="#6685CC"></path>
                    <path d="M454.15832,120.61206 C453.495315,120.61206 453.053312,121.386633 453.053312,122.271859 C453.053312,123.157085 453.495315,123.931658 454.15832,123.931658 C454.821325,123.931658 455.263328,123.157085 455.263328,122.271859 C455.263328,121.386633 454.821325,120.61206 454.15832,120.61206" id="Path" fill="#FFFFFF"></path>
                    <path d="M170.723748,27.6633166 C169.176737,27.6633166 167.961228,28.8805025 167.961228,30.4296482 C167.961228,31.978794 169.176737,33.1959799 170.723748,33.1959799 C172.270759,33.1959799 173.486268,31.978794 173.486268,30.4296482 C173.486268,28.8805025 172.270759,27.6633166 170.723748,27.6633166" id="Path" fill="#6685CC"></path>
                    <path d="M171.276252,28.7698492 C170.613247,28.7698492 170.171244,29.5444221 170.171244,30.4296482 C170.171244,31.3148744 170.613247,32.0894472 171.276252,32.0894472 C171.939257,32.0894472 172.38126,31.3148744 172.38126,30.4296482 C172.38126,29.5444221 171.939257,28.7698492 171.276252,28.7698492" id="Path" fill="#FFFFFF"></path>
                    <path d="M509.408724,0 C508.193215,0 507.198708,0.995879397 507.198708,2.21306533 C507.198708,3.43025126 508.193215,4.42613065 509.408724,4.42613065 C510.624233,4.42613065 511.61874,3.43025126 511.61874,2.21306533 C511.61874,0.995879397 510.624233,0 509.408724,0" id="Path" fill="#6685CC"></path>
                    <path d="M507.751212,3.31959799 C507.419709,3.31959799 507.198708,3.54090452 507.198708,3.87286432 C507.198708,4.20482412 507.419709,4.42613065 507.751212,4.42613065 C508.082714,4.42613065 508.303716,4.20482412 508.303716,3.87286432 C508.303716,3.54090452 508.082714,3.31959799 507.751212,3.31959799" id="Path" fill="#FFFFFF"></path>
                    <path d="M544.216478,105.120603 C542.669467,105.120603 541.453958,106.337789 541.453958,107.886935 C541.453958,109.43608 542.669467,110.653266 544.216478,110.653266 C545.763489,110.653266 546.978998,109.43608 546.978998,107.886935 C546.978998,106.337789 545.763489,105.120603 544.216478,105.120603" id="Path" fill="#6685CC"></path>
                    <path d="M543.663974,106.227136 C543.000969,106.227136 542.558966,107.001709 542.558966,107.886935 C542.558966,108.772161 543.000969,109.546734 543.663974,109.546734 C544.326979,109.546734 544.768982,108.772161 544.768982,107.886935 C544.768982,107.001709 544.326979,106.227136 543.663974,106.227136" id="Path" fill="#FFFFFF"></path>
                    <path d="M253.04685,123.931658 C251.168336,123.931658 249.731826,125.702111 249.731826,127.804523 C249.731826,129.906935 251.168336,131.677387 253.04685,131.677387 C254.925363,131.677387 256.361874,129.906935 256.361874,127.804523 C256.361874,125.702111 254.925363,123.931658 253.04685,123.931658" id="Path" fill="#6685CC"></path>
                    <path d="M253.04685,125.038191 C251.831341,125.038191 250.836834,126.03407 250.836834,127.251256 C250.836834,128.468442 251.831341,129.464322 253.04685,129.464322 C254.262359,129.464322 255.256866,128.468442 255.256866,127.251256 C255.256866,126.03407 254.262359,125.038191 253.04685,125.038191" id="Path" fill="#FFFFFF"></path>
                    <path d="M469.075929,89.6291457 C467.528918,89.6291457 466.313409,90.8463317 466.313409,92.3954774 C466.313409,93.9446231 467.528918,95.161809 469.075929,95.161809 C470.62294,95.161809 471.838449,93.9446231 471.838449,92.3954774 C471.838449,90.8463317 470.62294,89.6291457 469.075929,89.6291457" id="Path" fill="#6685CC"></path>
                    <path d="M469.628433,90.7356784 C468.965428,90.7356784 468.523425,91.5102513 468.523425,92.3954774 C468.523425,93.2807035 468.965428,94.0552764 469.628433,94.0552764 C470.291438,94.0552764 470.733441,93.2807035 470.733441,92.3954774 C470.733441,91.5102513 470.291438,90.7356784 469.628433,90.7356784" id="Path" fill="#FFFFFF"></path>
                    <path d="M412.168013,87.4160804 C410.952504,87.4160804 409.957997,88.4119598 409.957997,89.6291457 C409.957997,90.8463317 410.952504,91.8422111 412.168013,91.8422111 C413.383522,91.8422111 414.378029,90.8463317 414.378029,89.6291457 C414.378029,88.4119598 413.383522,87.4160804 412.168013,87.4160804" id="Path" fill="#6685CC"></path>
                    <path d="M411.615509,89.6291457 C411.284006,89.6291457 411.063005,89.8504523 411.063005,90.1824121 C411.063005,90.5143719 411.284006,90.7356784 411.615509,90.7356784 C411.947011,90.7356784 412.168013,90.5143719 412.168013,90.1824121 C412.168013,89.8504523 411.947011,89.6291457 411.615509,89.6291457" id="Path" fill="#FFFFFF"></path>
                    <path d="M433.163166,140.529648 C431.947658,140.529648 430.95315,141.525528 430.95315,142.742714 C430.95315,143.959899 431.947658,144.955779 433.163166,144.955779 C434.378675,144.955779 435.373183,143.959899 435.373183,142.742714 C435.373183,141.525528 434.378675,140.529648 433.163166,140.529648" id="Path" fill="#6685CC"></path>
                    <path d="M433.71567,142.742714 C433.384168,142.742714 433.163166,142.96402 433.163166,143.29598 C433.163166,143.62794 433.384168,143.849246 433.71567,143.849246 C434.047173,143.849246 434.268174,143.62794 434.268174,143.29598 C434.268174,142.96402 434.047173,142.742714 433.71567,142.742714" id="Path" fill="#FFFFFF"></path>
                    <path d="M415.483037,126.144724 C414.267528,126.144724 413.273021,127.140603 413.273021,128.357789 C413.273021,129.574975 414.267528,130.570854 415.483037,130.570854 C416.698546,130.570854 417.693053,129.574975 417.693053,128.357789 C417.693053,127.140603 416.698546,126.144724 415.483037,126.144724" id="Path" fill="#6685CC"></path>
                    <path d="M416.035541,128.357789 C415.704039,128.357789 415.483037,128.579095 415.483037,128.911055 C415.483037,129.243015 415.704039,129.464322 416.035541,129.464322 C416.367044,129.464322 416.588045,129.243015 416.588045,128.911055 C416.588045,128.579095 416.367044,128.357789 416.035541,128.357789" id="Path" fill="#FFFFFF"></path>
                    <path d="M156.911147,99.5879397 C155.695638,99.5879397 154.701131,100.583819 154.701131,101.801005 C154.701131,103.018191 155.695638,104.01407 156.911147,104.01407 C158.126656,104.01407 159.121163,103.018191 159.121163,101.801005 C159.121163,100.583819 158.126656,99.5879397 156.911147,99.5879397" id="Path" fill="#6685CC"></path>
                    <path d="M156.358643,100.694472 C156.027141,100.694472 155.806139,100.915779 155.806139,101.247739 C155.806139,101.579698 156.027141,101.801005 156.358643,101.801005 C156.690145,101.801005 156.911147,101.579698 156.911147,101.247739 C156.911147,100.915779 156.690145,100.694472 156.358643,100.694472" id="Path" fill="#FFFFFF"></path>
                    <path d="M237.576737,64.1788945 L0,64.1788945 L9.17156704,61.3019095 C18.6746365,58.3142714 22.5421648,52.338995 38.3437803,60.4166834 L38.5647819,60.4166834 L38.5647819,60.4166834 C50.7198708,53.5561809 63.0959612,53.1135678 74.4775444,58.8675377 L77.6820679,59.5314573 L88.1796446,59.420804 C96.0252019,37.6221106 115.694346,29.8763819 138.568013,29.8763819 C160.999677,29.8763819 180.226817,36.8475377 188.514378,57.8716583 L193.044911,57.761005 C206.415509,54.7733668 220.338611,56.2118593 232.935703,61.9658291 L237.576737,64.1788945 Z" id="Path" fill="#FEF9EE"></path>
                    <path d="M190.061389,123.931658 L334.817447,123.931658 L329.292407,122.271859 C323.546365,120.501407 321.225848,117.071156 311.501777,121.718593 L311.391276,121.718593 C303.987722,117.735075 296.473667,117.403116 289.512116,120.833367 L287.523102,121.27598 L281.114055,121.165327 C276.252019,108.440201 264.317932,104.01407 250.39483,104.01407 C236.803231,104.01407 224.979645,108.108241 220.007108,120.280101 L217.244588,120.280101 C209.067528,118.509648 200.558966,119.394874 192.93441,122.714472 L190.061389,123.931658 Z" id="Path" fill="#FEF9EE"></path>
                    <path d="M110.500808,162.660302 L213.266559,162.660302 L209.28853,161.443116 C205.2,160.22593 203.542488,157.680905 196.691438,161.111156 L196.580937,161.111156 C191.276898,158.234171 185.972859,158.012864 181.000323,160.447236 L179.563813,160.779196 L175.033279,160.668543 C171.607754,151.484322 163.099192,148.275377 153.15412,148.275377 C143.430048,148.275377 135.142488,151.263015 131.606462,160.004623 L129.617447,160.004623 C123.871405,158.787437 117.793861,159.340704 112.379321,161.775075 L110.500808,162.660302 Z" id="Path" fill="#FEF9EE"></path>
                </g>
                <g id="Group-110-Copy-5" transform="translate(0.000000, 984.044221)">
                    <path d="M295.037157,0 C293.821648,0 292.827141,0.995879397 292.827141,2.21306533 C292.827141,3.43025126 293.821648,4.42613065 295.037157,4.42613065 C296.252666,4.42613065 297.247173,3.43025126 297.247173,2.21306533 C297.247173,0.995879397 296.252666,0 295.037157,0" id="Path" fill="#6685CC"></path>
                    <path d="M295.589661,1.10653266 C295.258158,1.10653266 295.037157,1.3278392 295.037157,1.65979899 C295.037157,1.99175879 295.258158,2.21306533 295.589661,2.21306533 C295.921163,2.21306533 296.142165,1.99175879 296.142165,1.65979899 C296.142165,1.3278392 295.921163,1.10653266 295.589661,1.10653266" id="Path" fill="#FFFFFF"></path>
                    <path d="M509.408724,0 C508.193215,0 507.198708,0.995879397 507.198708,2.21306533 C507.198708,3.43025126 508.193215,4.42613065 509.408724,4.42613065 C510.624233,4.42613065 511.61874,3.43025126 511.61874,2.21306533 C511.61874,0.995879397 510.624233,0 509.408724,0" id="Path" fill="#6685CC"></path>
                    <path d="M507.751212,3.31959799 C507.419709,3.31959799 507.198708,3.54090452 507.198708,3.87286432 C507.198708,4.20482412 507.419709,4.42613065 507.751212,4.42613065 C508.082714,4.42613065 508.303716,4.20482412 508.303716,3.87286432 C508.303716,3.54090452 508.082714,3.31959799 507.751212,3.31959799" id="Path" fill="#FFFFFF"></path>
                </g>
            </g>
            <g id="fondo_perfil_1_" transform="translate(455.000000, 71.000000)" fill="#FEF9EE">
                <g id="Group-110_1_">
                    <path d="M238,36.5130238 L0,36.5130238 L9.18790698,33.6362401 C18.707907,30.6488109 22.5823256,24.6739524 38.412093,32.7510759 L38.6334884,32.7510759 L38.6334884,32.7510759 C50.8102326,25.8910532 63.2083721,25.4484711 74.6102326,31.2020385 L77.8204651,31.8659117 L88.3367442,31.7552661 C96.1962791,9.9580974 115.900465,2.21291053 138.814884,2.21291053 C161.286512,2.21291053 180.547907,9.18357871 188.850233,30.2062288 L193.388837,30.0955832 C206.783256,27.108154 220.731163,28.5465459 233.350698,34.3001133 L238,36.5130238 Z" id="Fill-104_1_"></path>
                </g>
                <g id="Group-110-Copy_1_" transform="translate(0.000000, 188.097395)">
                    <path d="M238,36.5130238 L0,36.5130238 L9.18790698,33.6362401 C18.707907,30.6488109 22.5823256,24.6739524 38.412093,32.7510759 L38.6334884,32.7510759 L38.6334884,32.7510759 C50.8102326,25.8910532 63.2083721,25.4484711 74.6102326,31.2020385 L77.8204651,31.8659117 L88.3367442,31.7552661 C96.1962791,9.9580974 115.900465,2.21291053 138.814884,2.21291053 C161.286512,2.21291053 180.547907,9.18357871 188.850233,30.2062288 L193.388837,30.0955832 C206.783256,27.108154 220.731163,28.5465459 233.350698,34.3001133 L238,36.5130238 Z" id="Path"></path>
                </g>
                <g id="Group-110-Copy-2_1_" transform="translate(0.000000, 376.194790)">
                    <path d="M238,36.5130238 L0,36.5130238 L9.18790698,33.6362401 C18.707907,30.6488109 22.5823256,24.6739524 38.412093,32.7510759 L38.6334884,32.7510759 L38.6334884,32.7510759 C50.8102326,25.8910532 63.2083721,25.4484711 74.6102326,31.2020385 L77.8204651,31.8659117 L88.3367442,31.7552661 C96.1962791,9.9580974 115.900465,2.21291053 138.814884,2.21291053 C161.286512,2.21291053 180.547907,9.18357871 188.850233,30.2062288 L193.388837,30.0955832 C206.783256,27.108154 220.731163,28.5465459 233.350698,34.3001133 L238,36.5130238 Z" id="Path"></path>
                </g>
                <g id="Group-110-Copy-3_1_" transform="translate(0.000000, 564.292186)">
                    <path d="M238,36.5130238 L0,36.5130238 L9.18790698,33.6362401 C18.707907,30.6488109 22.5823256,24.6739524 38.412093,32.7510759 L38.6334884,32.7510759 L38.6334884,32.7510759 C50.8102326,25.8910532 63.2083721,25.4484711 74.6102326,31.2020385 L77.8204651,31.8659117 L88.3367442,31.7552661 C96.1962791,9.9580974 115.900465,2.21291053 138.814884,2.21291053 C161.286512,2.21291053 180.547907,9.18357871 188.850233,30.2062288 L193.388837,30.0955832 C206.783256,27.108154 220.731163,28.5465459 233.350698,34.3001133 L238,36.5130238 Z" id="Path"></path>
                </g>
                <g id="Group-110-Copy-4_1_" transform="translate(0.000000, 752.389581)">
                    <path d="M238,36.5130238 L0,36.5130238 L9.18790698,33.6362401 C18.707907,30.6488109 22.5823256,24.6739524 38.412093,32.7510759 L38.6334884,32.7510759 L38.6334884,32.7510759 C50.8102326,25.8910532 63.2083721,25.4484711 74.6102326,31.2020385 L77.8204651,31.8659117 L88.3367442,31.7552661 C96.1962791,9.9580974 115.900465,2.21291053 138.814884,2.21291053 C161.286512,2.21291053 180.547907,9.18357871 188.850233,30.2062288 L193.388837,30.0955832 C206.783256,27.108154 220.731163,28.5465459 233.350698,34.3001133 L238,36.5130238 Z" id="Path"></path>
                </g>
            </g>
        </g>
    </g>
</svg>