<?xml version="1.0" encoding="UTF-8"?>
<svg width="38px" height="30px" viewBox="0 0 38 30" version="1.1" xmlns="http://www.w3.org/2000/svg" xmlns:xlink="http://www.w3.org/1999/xlink">
    <title>sign-in-alt-solid</title>
    <defs>
        <filter id="filter-1">
            <feColorMatrix in="SourceGraphic" type="matrix" values="0 0 0 0 1.000000 0 0 0 0 1.000000 0 0 0 0 1.000000 0 0 0 1.000000 0"></feColorMatrix>
        </filter>
    </defs>
    <g id="Page-1" stroke="none" stroke-width="1" fill="none" fill-rule="evenodd">
        <g id="GaliciaWeather_perfil" transform="translate(-130.000000, -257.000000)">
            <g id="sign-in-alt-solid" transform="translate(104.000000, 238.000000)" filter="url(#filter-1)">
                <g transform="translate(26.000000, 19.121094)">
                    <path d="M31,27.8789062 L24.875,27.8789062 C24.39375,27.8789062 24,27.4992188 24,27.0351562 L24,24.2226562 C24,23.7585937 24.39375,23.3789062 24.875,23.3789062 L31,23.3789062 C32.290625,23.3789062 33.3333333,22.3734375 33.3333333,21.1289062 L33.3333333,7.62890625 C33.3333333,6.384375 32.290625,5.37890625 31,5.37890625 L24.875,5.37890625 C24.39375,5.37890625 24,4.99921875 24,4.53515625 L24,1.72265625 C24,1.25859375 24.39375,0.87890625 24.875,0.87890625 L31,0.87890625 C34.8645833,0.87890625 38,3.90234375 38,7.62890625 L38,21.1289062 C38,24.8554688 34.8645833,27.8789062 31,27.8789062 Z M27.4805506,14.1838584 L14.9690804,2.37397335 C13.8519848,1.31951933 11.9156859,2.05763715 11.9156859,3.56902124 L11.9156859,10.317527 L1.78735288,10.317527 C0.796861493,10.317527 0,11.0697042 0,12.0046534 L0,18.7531591 C0,19.6881083 0.796861493,20.4402855 1.78735288,20.4402855 L11.9156859,20.4402855 L11.9156859,27.1887913 C11.9156859,28.7001754 13.8519848,29.4382932 14.9690804,28.3838391 L27.4805506,16.5739541 C28.1731498,15.913163 28.1731498,14.8446495 27.4805506,14.1838584 Z" id="Shape" fill="#333333" fill-rule="nonzero"></path>
                </g>
            </g>
        </g>
    </g>
</svg>