<?xml version="1.0" encoding="UTF-8" standalone="no"?>
<svg
   xmlns:dc="http://purl.org/dc/elements/1.1/"
   xmlns:cc="http://creativecommons.org/ns#"
   xmlns:rdf="http://www.w3.org/1999/02/22-rdf-syntax-ns#"
   xmlns:svg="http://www.w3.org/2000/svg"
   xmlns="http://www.w3.org/2000/svg"
   data-name="Layer 1"
   viewBox="0 0 1200 109.98921"
   preserveAspectRatio="none"
   version="1.1"
   id="svg8"
   width="1200"
   height="109.98921">
  <metadata
     id="metadata14">
    <rdf:RDF>
      <cc:Work
         rdf:about="">
        <dc:format>image/svg+xml</dc:format>
        <dc:type
           rdf:resource="http://purl.org/dc/dcmitype/StillImage" />
        <dc:title></dc:title>
      </cc:Work>
    </rdf:RDF>
  </metadata>
  <defs
     id="defs12" />
  <path
     d="m 1200,90.98495 v -46.29 c -47.79,-22.2 -103.59,-32.17 -158,-28 -70.36,5.37 -136.33,33.31 -206.8,37.5 -73.84,4.36 -147.54,-16.88 -218.20001,-35.26 C 547.72999,0.9349492 478.69999,-5.9450508 407.6,5.8549492 371.45,11.85495 337.75,23.69495 303.15,35.19495 c -92.64,30.79 -216.150002,70.08 -303.1500020113748,3.32 v 52.47 z"
     class="shape-fill"
     id="path2"
     style="opacity:0.25;fill:#ffffff;fill-opacity:1" />
  <path
     d="m 1200,109.98921 v -15.81 c -13,-21.11 -27.64,-41.05 -47.69,-56.24 -51.72,-39.2200006 -117.31,-38.9500006 -176.89,-19.53 -31.15,10.15 -60.09,26.07 -89.67,39.8 -40.92,19 -84.73,46 -130.83,49.67 -36.26,2.85 -70.9,-9.42 -98.6,-31.56 -31.77001,-25.39 -62.32001,-62 -103.63001,-73.0000006 -40.44,-10.79 -81.35,6.6900006 -119.12999,24.2800006 -37.78,17.59 -75.16,39 -116.92,43.05 -59.73,5.85 -113.28,-22.88 -168.9,-38.84 -30.2,-8.66 -59.000002,-6.17 -87.090002,7.5 -22.43,10.89 -48,26.93 -60.6499998201901,49.24 v 21.44 z"
     class="shape-fill"
     id="path4"
     style="opacity:0.5;fill:#ffffff;fill-opacity:1" />
  <path
     d="m 1200,90.908955 v -5.63 c -149.93,-53.37 -314.09,-65.69 -475.83,-36.94 -43,7.64 -84.23,20.12 -127.61,26.46 -59,8.63 -112.48,-12.24 -165.56,-35.4 C 372.07,13.688955 314,-4.3310456 248.8,0.90895442 162.27,7.9089544 76.340003,46.618955 3.2136014e-6,85.718955 v 5.19 z"
     class="shape-fill"
     id="path6"
     style="fill:#ffffff;fill-opacity:1" />
</svg>
